<svg xmlns="http://www.w3.org/2000/svg" xmlns:xlink="http://www.w3.org/1999/xlink" xmlns:lucid="lucid" width="1132" height="1699.5"><g transform="translate(-14 -20)" lucid:page-tab-id="0_0"><path d="M0 0h1500v2000H0z" fill="#fff"/><path d="M100 106a6 6 0 0 1 6-6h188a6 6 0 0 1 6 6v88a6 6 0 0 1-6 6H106a6 6 0 0 1-6-6z" stroke="#3a414a" fill="#fff"/><use xlink:href="#a" transform="matrix(1,0,0,1,105,105) translate(75.37654320987654 50.49305555555556)"/><path d="M100 46a6 6 0 0 1 6-6h228a6 6 0 0 1 6 6v48a6 6 0 0 1-6 6H106a6 6 0 0 1-6-6z" stroke="#000" stroke-opacity="0" fill="#fff" fill-opacity="0"/><use xlink:href="#b" transform="matrix(1,0,0,1,105,45) translate(0 31.138888888888886)"/><path d="M100 406a6 6 0 0 1 6-6h188a6 6 0 0 1 6 6v88a6 6 0 0 1-6 6H106a6 6 0 0 1-6-6z" stroke="#3a414a" fill="#fff"/><use xlink:href="#c" transform="matrix(1,0,0,1,105,405) translate(56.3641975308642 50.49305555555556)"/><path d="M100 346a6 6 0 0 1 6-6h228a6 6 0 0 1 6 6v48a6 6 0 0 1-6 6H106a6 6 0 0 1-6-6z" stroke="#000" stroke-opacity="0" fill="#fff" fill-opacity="0"/><use xlink:href="#d" transform="matrix(1,0,0,1,105,345) translate(0 31.138888888888886)"/><path d="M300 406a6 6 0 0 1 6-6h188a6 6 0 0 1 6 6v88a6 6 0 0 1-6 6H306a6 6 0 0 1-6-6z" stroke="#3a414a" fill="#fff"/><use xlink:href="#e" transform="matrix(1,0,0,1,305,405) translate(63.120370370370374 50.49305555555556)"/><path d="M500 406a6 6 0 0 1 6-6h188a6 6 0 0 1 6 6v88a6 6 0 0 1-6 6H506a6 6 0 0 1-6-6z" stroke="#3a414a" fill="#fff"/><use xlink:href="#f" transform="matrix(1,0,0,1,505,405) translate(23.296296296296276 50.49305555555556)"/><path d="M700 406a6 6 0 0 1 6-6h188a6 6 0 0 1 6 6v88a6 6 0 0 1-6 6H706a6 6 0 0 1-6-6z" stroke="#3a414a" fill="#fff"/><use xlink:href="#g" transform="matrix(1,0,0,1,705,405) translate(12.941358024691397 36.43055555555554)"/><use xlink:href="#h" transform="matrix(1,0,0,1,705,405) translate(37.38580246913584 65.76388888888887)"/><path d="M900 406a6 6 0 0 1 6-6h188a6 6 0 0 1 6 6v88a6 6 0 0 1-6 6H906a6 6 0 0 1-6-6z" stroke="#3a414a" fill="#fff"/><use xlink:href="#i" transform="matrix(1,0,0,1,905,405) translate(75.37654320987656 50.49305555555554)"/><path d="M1000 399v-93a6 6 0 0 0-6-6H206a6 6 0 0 1-6-6v-77.12" stroke="#3a414a" fill="none"/><path d="M1000.5 399.5h-1v-.5h1z" stroke="#3a414a" stroke-width=".05" fill="#3a414a"/><path d="M200 202.12l4.63 14.26h-9.26z" stroke="#3a414a" fill="#3a414a"/><path d="M100 706a6 6 0 0 1 6-6h188a6 6 0 0 1 6 6v88a6 6 0 0 1-6 6H106a6 6 0 0 1-6-6z" stroke="#3a414a" fill="#fff"/><use xlink:href="#j" transform="matrix(1,0,0,1,105,705) translate(51.64506172839506 50.49305555555556)"/><path d="M100 646a6 6 0 0 1 6-6h228a6 6 0 0 1 6 6v48a6 6 0 0 1-6 6H106a6 6 0 0 1-6-6z" stroke="#000" stroke-opacity="0" fill="#fff" fill-opacity="0"/><use xlink:href="#k" transform="matrix(1,0,0,1,105,645) translate(0 31.138888888888886)"/><path d="M300 706a6 6 0 0 1 6-6h188a6 6 0 0 1 6 6v88a6 6 0 0 1-6 6H306a6 6 0 0 1-6-6z" stroke="#3a414a" fill="#fff"/><use xlink:href="#l" transform="matrix(1,0,0,1,305,705) translate(69.23148148148148 50.49305555555556)"/><path d="M500 706a6 6 0 0 1 6-6h188a6 6 0 0 1 6 6v88a6 6 0 0 1-6 6H506a6 6 0 0 1-6-6z" stroke="#3a414a" fill="#fff"/><use xlink:href="#m" transform="matrix(1,0,0,1,505,705) translate(75.37654320987654 50.49305555555556)"/><path d="M100 1006a6 6 0 0 1 6-6h188a6 6 0 0 1 6 6v88a6 6 0 0 1-6 6H106a6 6 0 0 1-6-6z" stroke="#3a414a" fill="#fff"/><use xlink:href="#c" transform="matrix(1,0,0,1,105,1005) translate(56.3641975308642 50.49305555555556)"/><path d="M100 946a6 6 0 0 1 6-6h228a6 6 0 0 1 6 6v48a6 6 0 0 1-6 6H106a6 6 0 0 1-6-6z" stroke="#000" stroke-opacity="0" fill="#fff" fill-opacity="0"/><use xlink:href="#n" transform="matrix(1,0,0,1,105,945) translate(0 31.22222222222222)"/><path d="M300 1006a6 6 0 0 1 6-6h188a6 6 0 0 1 6 6v88a6 6 0 0 1-6 6H306a6 6 0 0 1-6-6z" stroke="#3a414a" fill="#fff"/><use xlink:href="#j" transform="matrix(1,0,0,1,305,1005) translate(51.64506172839506 50.49305555555556)"/><path d="M99 1050H26a6 6 0 0 1-6-6V546.5a6 6 0 0 1 6-6h168a6 6 0 0 0 6-6v-17.62" stroke="#3a414a" fill="none"/><path d="M99.5 1050.5H99v-1h.5z" stroke="#3a414a" stroke-width=".05" fill="#3a414a"/><path d="M200 502.12l4.63 14.26h-9.26z" stroke="#3a414a" fill="#3a414a"/><path d="M400 999v-93a6 6 0 0 0-6-6H207a6 6 0 0 1-6-6v-77.12" stroke="#3a414a" fill="none"/><path d="M400.5 999.5h-1v-.5h1z" stroke="#3a414a" stroke-width=".05" fill="#3a414a"/><path d="M201 802.12l4.63 14.26h-9.26z" stroke="#3a414a" fill="#3a414a"/><path d="M100 1306a6 6 0 0 1 6-6h188a6 6 0 0 1 6 6v88a6 6 0 0 1-6 6H106a6 6 0 0 1-6-6z" stroke="#3a414a" fill="#fff"/><use xlink:href="#a" transform="matrix(1,0,0,1,105,1305) translate(75.37654320987654 50.49305555555556)"/><path d="M100 1246a6 6 0 0 1 6-6h228a6 6 0 0 1 6 6v48a6 6 0 0 1-6 6H106a6 6 0 0 1-6-6z" stroke="#000" stroke-opacity="0" fill="#fff" fill-opacity="0"/><use xlink:href="#o" transform="matrix(1,0,0,1,105,1245) translate(0 31.138888888888886)"/><path d="M300 1306a6 6 0 0 1 6-6h188a6 6 0 0 1 6 6v88a6 6 0 0 1-6 6H306a6 6 0 0 1-6-6z" stroke="#3a414a" fill="#fff"/><use xlink:href="#p" transform="matrix(1,0,0,1,305,1305) translate(62.47530864197531 50.49305555555556)"/><path d="M500 1306a6 6 0 0 1 6-6h188a6 6 0 0 1 6 6v88a6 6 0 0 1-6 6H506a6 6 0 0 1-6-6z" stroke="#3a414a" fill="#fff"/><use xlink:href="#q" transform="matrix(1,0,0,1,505,1305) translate(74.66358024691358 50.49305555555556)"/><path d="M700 1306a6 6 0 0 1 6-6h188a6 6 0 0 1 6 6v88a6 6 0 0 1-6 6H706a6 6 0 0 1-6-6z" stroke="#3a414a" fill="#fff"/><use xlink:href="#r" transform="matrix(1,0,0,1,705,1305) translate(9.546296296296276 50.49305555555556)"/><path d="M900 1306a6 6 0 0 1 6-6h188a6 6 0 0 1 6 6v88a6 6 0 0 1-6 6H906a6 6 0 0 1-6-6z" stroke="#3a414a" fill="#fff"/><use xlink:href="#s" transform="matrix(1,0,0,1,905,1305) translate(10.19135802469134 36.43055555555556)"/><use xlink:href="#t" transform="matrix(1,0,0,1,905,1305) translate(27.132716049382708 65.76388888888889)"/><path d="M100 1605.5a6 6 0 0 1 6-6h188a6 6 0 0 1 6 6v88a6 6 0 0 1-6 6H106a6 6 0 0 1-6-6z" stroke="#3a414a" fill="#fff"/><use xlink:href="#j" transform="matrix(1,0,0,1,105,1604.5000505317003) translate(51.64506172839506 50.49305555555556)"/><path d="M100 1545.5a6 6 0 0 1 6-6h228a6 6 0 0 1 6 6v48a6 6 0 0 1-6 6H106a6 6 0 0 1-6-6z" stroke="#000" stroke-opacity="0" fill="#fff" fill-opacity="0"/><use xlink:href="#u" transform="matrix(1,0,0,1,105,1544.5000505317003) translate(0 31.22222222222222)"/><path d="M300 1605.5a6 6 0 0 1 6-6h188a6 6 0 0 1 6 6v88a6 6 0 0 1-6 6H306a6 6 0 0 1-6-6z" stroke="#3a414a" fill="#fff"/><use xlink:href="#a" transform="matrix(1,0,0,1,305,1604.5000505317003) translate(75.37654320987654 50.49305555555556)"/><path d="M400 1598.5v-92.75a6 6 0 0 0-6-6H175.33a6 6 0 0 1-6-6v-76.87" stroke="#3a414a" fill="none"/><path d="M400.5 1599h-1v-.5h1z" stroke="#3a414a" stroke-width=".05" fill="#3a414a"/><path d="M169.33 1402.12l4.64 14.26h-9.27z" stroke="#3a414a" fill="#3a414a"/><path d="M99 1649.5H65.5a6 6 0 0 1-6-6v-797a6 6 0 0 1 6-6h81.83a6 6 0 0 0 6-6v-17.62" stroke="#3a414a" fill="none"/><path d="M99.5 1650H99v-1h.5z" stroke="#3a414a" stroke-width=".05" fill="#3a414a"/><path d="M153.33 802.12l4.64 14.26h-9.27z" stroke="#3a414a" fill="#3a414a"/><path d="M600 699v-33.5a6 6 0 0 1 6-6h528a6 6 0 0 1 6 6v769a6 6 0 0 1-6 6H236.67a6 6 0 0 1-6-6v-17.62" stroke="#3a414a" fill="none"/><path d="M600.5 699.5h-1v-.5h1z" stroke="#3a414a" stroke-width=".05" fill="#3a414a"/><path d="M230.67 1402.12l4.63 14.26h-9.27z" stroke="#3a414a" fill="#3a414a"/><defs><path fill="#3a414a" d="M190 0L58-211 59 0H30v-248h39L202-35l-2-213h31V0h-41" id="v"/><path fill="#3a414a" d="M33 0v-248h34V0H33" id="w"/><path fill="#3a414a" d="M63-220v92h138v28H63V0H30v-248h175v28H63" id="x"/><g id="a"><use transform="matrix(0.06790123456790123,0,0,0.06790123456790123,0,0)" xlink:href="#v"/><use transform="matrix(0.06790123456790123,0,0,0.06790123456790123,17.586419753086417,0)" xlink:href="#w"/><use transform="matrix(0.06790123456790123,0,0,0.06790123456790123,24.37654320987654,0)" xlink:href="#x"/><path fill="#3a414a" d="M-1.22 1.7h41.7v1.78h-41.7z"/></g><path fill="#3a414a" d="M24 0v-248h195v40H76v63h132v40H76v65h150V0H24" id="y"/><path fill="#3a414a" d="M230 0l2-204L168 0h-37L68-204 70 0H24v-248h70l56 185 57-185h69V0h-46" id="z"/><path fill="#3a414a" d="M24-248c93 1 206-16 204 79-1 75-69 88-152 82V0H24v-248zm52 121c47 0 100 7 100-41 0-47-54-39-100-39v80" id="A"/><path fill="#3a414a" d="M240-174c0 40-23 61-54 70L253 0h-59l-57-94H76V0H24v-248c93 4 217-23 216 74zM76-134c48-2 112 12 112-38 0-48-66-32-112-35v73" id="B"/><path fill="#3a414a" d="M169-182c-1-43-94-46-97-3 18 66 151 10 154 114 3 95-165 93-204 36-6-8-10-19-12-30l50-8c3 46 112 56 116 5-17-69-150-10-154-114-4-87 153-88 188-35 5 8 8 18 10 28" id="C"/><path fill="#3a414a" d="M199 0l-22-63H83L61 0H9l90-248h61L250 0h-51zm-33-102l-36-108c-10 38-24 72-36 108h72" id="D"/><g id="b"><use transform="matrix(0.08641975308641973,0,0,0.08641975308641973,0,0)" xlink:href="#y"/><use transform="matrix(0.08641975308641973,0,0,0.08641975308641973,20.740740740740737,0)" xlink:href="#z"/><use transform="matrix(0.08641975308641973,0,0,0.08641975308641973,46.58024691358024,0)" xlink:href="#A"/><use transform="matrix(0.08641975308641973,0,0,0.08641975308641973,67.32098765432097,0)" xlink:href="#B"/><use transform="matrix(0.08641975308641973,0,0,0.08641975308641973,89.70370370370368,0)" xlink:href="#y"/><use transform="matrix(0.08641975308641973,0,0,0.08641975308641973,110.44444444444441,0)" xlink:href="#C"/><use transform="matrix(0.08641975308641973,0,0,0.08641975308641973,131.18518518518516,0)" xlink:href="#D"/></g><path fill="#3a414a" d="M212-179c-10-28-35-45-73-45-59 0-87 40-87 99 0 60 29 101 89 101 43 0 62-24 78-52l27 14C228-24 195 4 139 4 59 4 22-46 18-125c-6-104 99-153 187-111 19 9 31 26 39 46" id="E"/><path fill="#3a414a" d="M100-194c62-1 85 37 85 99 1 63-27 99-86 99S16-35 15-95c0-66 28-99 85-99zM99-20c44 1 53-31 53-75 0-43-8-75-51-75s-53 32-53 75 10 74 51 75zM76-211c8-23 27-35 38-54h36v5l-58 49H76" id="F"/><path fill="#3a414a" d="M85-194c31 0 48 13 60 33l-1-100h32l1 261h-30c-2-10 0-23-3-31C134-8 116 4 85 4 32 4 16-35 15-94c0-66 23-100 70-100zm9 24c-40 0-46 34-46 75 0 40 6 74 45 74 42 0 51-32 51-76 0-42-9-74-50-73" id="G"/><path fill="#3a414a" d="M24-231v-30h32v30H24zM24 0v-190h32V0H24" id="H"/><path fill="#3a414a" d="M177-190C167-65 218 103 67 71c-23-6-38-20-44-43l32-5c15 47 100 32 89-28v-30C133-14 115 1 83 1 29 1 15-40 15-95c0-56 16-97 71-98 29-1 48 16 59 35 1-10 0-23 2-32h30zM94-22c36 0 50-32 50-73 0-42-14-75-50-75-39 0-46 34-46 75s6 73 46 73" id="I"/><path fill="#3a414a" d="M100-194c62-1 85 37 85 99 1 63-27 99-86 99S16-35 15-95c0-66 28-99 85-99zM99-20c44 1 53-31 53-75 0-43-8-75-51-75s-53 32-53 75 10 74 51 75" id="J"/><g id="c"><use transform="matrix(0.06790123456790123,0,0,0.06790123456790123,0,0)" xlink:href="#E"/><use transform="matrix(0.06790123456790123,0,0,0.06790123456790123,17.586419753086417,0)" xlink:href="#F"/><use transform="matrix(0.06790123456790123,0,0,0.06790123456790123,31.166666666666664,0)" xlink:href="#G"/><use transform="matrix(0.06790123456790123,0,0,0.06790123456790123,44.74691358024691,0)" xlink:href="#H"/><use transform="matrix(0.06790123456790123,0,0,0.06790123456790123,50.11111111111111,0)" xlink:href="#I"/><use transform="matrix(0.06790123456790123,0,0,0.06790123456790123,63.691358024691354,0)" xlink:href="#J"/><path fill="#3a414a" d="M-1.22 1.7H78.5v1.78H-1.22z"/></g><path fill="#3a414a" d="M140-251c80 0 125 45 125 126S219 4 139 4C58 4 15-44 15-125s44-126 125-126zm-1 214c52 0 73-35 73-88 0-50-21-86-72-86-52 0-73 35-73 86s22 88 72 88" id="K"/><path fill="#3a414a" d="M24-248c120-7 223 5 221 122C244-46 201 0 124 0H24v-248zM76-40c74 7 117-18 117-86 0-67-45-88-117-82v168" id="L"/><path fill="#3a414a" d="M238-95c0 69-44 99-111 99C63 4 22-25 22-93v-155h51v151c-1 38 19 59 55 60 90 1 49-130 58-211h52v153" id="M"/><path fill="#3a414a" d="M136-208V0H84v-208H4v-40h212v40h-80" id="N"/><g id="d"><use transform="matrix(0.08641975308641973,0,0,0.08641975308641973,0,0)" xlink:href="#A"/><use transform="matrix(0.08641975308641973,0,0,0.08641975308641973,20.740740740740737,0)" xlink:href="#B"/><use transform="matrix(0.08641975308641973,0,0,0.08641975308641973,43.12345679012345,0)" xlink:href="#K"/><use transform="matrix(0.08641975308641973,0,0,0.08641975308641973,67.32098765432097,0)" xlink:href="#L"/><use transform="matrix(0.08641975308641973,0,0,0.08641975308641973,89.70370370370368,0)" xlink:href="#M"/><use transform="matrix(0.08641975308641973,0,0,0.08641975308641973,112.08641975308639,0)" xlink:href="#N"/><use transform="matrix(0.08641975308641973,0,0,0.08641975308641973,130.40740740740736,0)" xlink:href="#K"/></g><path fill="#3a414a" d="M30-248c87 1 191-15 191 75 0 78-77 80-158 76V0H30v-248zm33 125c57 0 124 11 124-50 0-59-68-47-124-48v98" id="O"/><path fill="#3a414a" d="M114-163C36-179 61-72 57 0H25l-1-190h30c1 12-1 29 2 39 6-27 23-49 58-41v29" id="P"/><path fill="#3a414a" d="M100-194c63 0 86 42 84 106H49c0 40 14 67 53 68 26 1 43-12 49-29l28 8c-11 28-37 45-77 45C44 4 14-33 15-96c1-61 26-98 85-98zm52 81c6-60-76-77-97-28-3 7-6 17-6 28h103" id="Q"/><path fill="#3a414a" d="M96-169c-40 0-48 33-48 73s9 75 48 75c24 0 41-14 43-38l32 2c-6 37-31 61-74 61-59 0-76-41-82-99-10-93 101-131 147-64 4 7 5 14 7 22l-32 3c-4-21-16-35-41-35zm3 187c19-1 33 8 33 26 0 31-30 33-64 32V58c18 2 39 4 41-13 1-15-18-13-34-13L87 0h19" id="R"/><g id="e"><use transform="matrix(0.06790123456790123,0,0,0.06790123456790123,0,0)" xlink:href="#O"/><use transform="matrix(0.06790123456790123,0,0,0.06790123456790123,16.296296296296294,0)" xlink:href="#P"/><use transform="matrix(0.06790123456790123,0,0,0.06790123456790123,24.37654320987654,0)" xlink:href="#Q"/><use transform="matrix(0.06790123456790123,0,0,0.06790123456790123,37.95679012345679,0)" xlink:href="#R"/><use transform="matrix(0.06790123456790123,0,0,0.06790123456790123,50.179012345679,0)" xlink:href="#J"/></g><path fill="#3a414a" d="M127-220V0H93v-220H8v-28h204v28h-85" id="S"/><path fill="#3a414a" d="M141-36C126-15 110 5 73 4 37 3 15-17 15-53c-1-64 63-63 125-63 3-35-9-54-41-54-24 1-41 7-42 31l-33-3c5-37 33-52 76-52 45 0 72 20 72 64v82c-1 20 7 32 28 27v20c-31 9-61-2-59-35zM48-53c0 20 12 33 32 33 41-3 63-29 60-74-43 2-92-5-92 41" id="T"/><path fill="#3a414a" d="M141 0L90-78 38 0H4l68-98-65-92h35l48 74 47-74h35l-64 92 68 98h-35" id="U"/><path fill="#3a414a" d="M-5 72V49h209v23H-5" id="V"/><path fill="#3a414a" d="M137 0h-34L2-248h35l83 218 83-218h36" id="W"/><path fill="#3a414a" d="M205 0l-28-72H64L36 0H1l101-248h38L239 0h-34zm-38-99l-47-123c-12 45-31 82-46 123h93" id="X"/><g id="f"><use transform="matrix(0.06790123456790123,0,0,0.06790123456790123,0,0)" xlink:href="#S"/><use transform="matrix(0.06790123456790123,0,0,0.06790123456790123,12.15432098765432,0)" xlink:href="#T"/><use transform="matrix(0.06790123456790123,0,0,0.06790123456790123,25.73456790123457,0)" xlink:href="#U"/><use transform="matrix(0.06790123456790123,0,0,0.06790123456790123,37.95679012345679,0)" xlink:href="#T"/><use transform="matrix(0.06790123456790123,0,0,0.06790123456790123,51.537037037037045,0)" xlink:href="#V"/><use transform="matrix(0.06790123456790123,0,0,0.06790123456790123,65.11728395061729,0)" xlink:href="#G"/><use transform="matrix(0.06790123456790123,0,0,0.06790123456790123,78.69753086419755,0)" xlink:href="#Q"/><use transform="matrix(0.06790123456790123,0,0,0.06790123456790123,92.2777777777778,0)" xlink:href="#V"/><use transform="matrix(0.06790123456790123,0,0,0.06790123456790123,105.85802469135805,0)" xlink:href="#w"/><use transform="matrix(0.06790123456790123,0,0,0.06790123456790123,112.6481481481482,0)" xlink:href="#W"/><use transform="matrix(0.06790123456790123,0,0,0.06790123456790123,127.11111111111116,0)" xlink:href="#X"/></g><path fill="#3a414a" d="M232-93c-1 65-40 97-104 97C67 4 28-28 28-90v-158h33c8 89-33 224 67 224 102 0 64-133 71-224h33v155" id="Y"/><path fill="#3a414a" d="M117-194c89-4 53 116 60 194h-32v-121c0-31-8-49-39-48C34-167 62-67 57 0H25l-1-190h30c1 10-1 24 2 32 11-22 29-35 61-36" id="Z"/><path fill="#3a414a" d="M135-143c-3-34-86-38-87 0 15 53 115 12 119 90S17 21 10-45l28-5c4 36 97 45 98 0-10-56-113-15-118-90-4-57 82-63 122-42 12 7 21 19 24 35" id="aa"/><path fill="#3a414a" d="M210-169c-67 3-38 105-44 169h-31v-121c0-29-5-50-35-48C34-165 62-65 56 0H25l-1-190h30c1 10-1 24 2 32 10-44 99-50 107 0 11-21 27-35 58-36 85-2 47 119 55 194h-31v-121c0-29-5-49-35-48" id="ab"/><g id="g"><use transform="matrix(0.0679012345679012,0,0,0.0679012345679012,0,0)" xlink:href="#Y"/><use transform="matrix(0.0679012345679012,0,0,0.0679012345679012,17.58641975308641,0)" xlink:href="#Z"/><use transform="matrix(0.0679012345679012,0,0,0.0679012345679012,31.16666666666665,0)" xlink:href="#H"/><use transform="matrix(0.0679012345679012,0,0,0.0679012345679012,36.530864197530846,0)" xlink:href="#G"/><use transform="matrix(0.0679012345679012,0,0,0.0679012345679012,50.111111111111086,0)" xlink:href="#T"/><use transform="matrix(0.0679012345679012,0,0,0.0679012345679012,63.691358024691326,0)" xlink:href="#G"/><use transform="matrix(0.0679012345679012,0,0,0.0679012345679012,77.27160493827157,0)" xlink:href="#Q"/><use transform="matrix(0.0679012345679012,0,0,0.0679012345679012,90.8518518518518,0)" xlink:href="#aa"/><use transform="matrix(0.0679012345679012,0,0,0.0679012345679012,103.07407407407402,0)" xlink:href="#V"/><use transform="matrix(0.0679012345679012,0,0,0.0679012345679012,116.65432098765424,0)" xlink:href="#Q"/><use transform="matrix(0.0679012345679012,0,0,0.0679012345679012,130.2345679012345,0)" xlink:href="#ab"/><use transform="matrix(0.0679012345679012,0,0,0.0679012345679012,150.53703703703698,0)" xlink:href="#V"/></g><path fill="#3a414a" d="M9 0v-24l116-142H16v-24h144v24L44-24h123V0H9" id="ac"/><path fill="#3a414a" d="M100-194c63 0 86 42 84 106H49c0 40 14 67 53 68 26 1 43-12 49-29l28 8c-11 28-37 45-77 45C44 4 14-33 15-96c1-61 26-98 85-98zm52 81c6-60-76-77-97-28-3 7-6 17-6 28h103zm-74-98c8-23 27-35 38-54h36v5l-58 49H78" id="ad"/><g id="h"><use transform="matrix(0.0679012345679012,0,0,0.0679012345679012,0,0)" xlink:href="#V"/><use transform="matrix(0.0679012345679012,0,0,0.0679012345679012,13.58024691358024,0)" xlink:href="#T"/><use transform="matrix(0.0679012345679012,0,0,0.0679012345679012,27.16049382716048,0)" xlink:href="#P"/><use transform="matrix(0.0679012345679012,0,0,0.0679012345679012,35.24074074074072,0)" xlink:href="#ab"/><use transform="matrix(0.0679012345679012,0,0,0.0679012345679012,55.54320987654319,0)" xlink:href="#T"/><use transform="matrix(0.0679012345679012,0,0,0.0679012345679012,69.12345679012341,0)" xlink:href="#ac"/><use transform="matrix(0.0679012345679012,0,0,0.0679012345679012,81.34567901234563,0)" xlink:href="#ad"/><use transform="matrix(0.0679012345679012,0,0,0.0679012345679012,94.92592592592587,0)" xlink:href="#ab"/></g><g id="i"><use transform="matrix(0.0679012345679012,0,0,0.0679012345679012,0,0)" xlink:href="#v"/><use transform="matrix(0.0679012345679012,0,0,0.0679012345679012,17.58641975308641,0)" xlink:href="#w"/><use transform="matrix(0.0679012345679012,0,0,0.0679012345679012,24.37654320987653,0)" xlink:href="#x"/></g><path fill="#3a414a" d="M85 4C-4 8 31-112 24-190h32v120c0 31 7 50 39 49 72-2 45-101 50-169h31l1 190h-30c-1-10 1-25-2-33-11 22-28 36-60 37zM73-211c8-23 27-35 38-54h36v5l-58 49H73" id="ae"/><g id="j"><use transform="matrix(0.06790123456790123,0,0,0.06790123456790123,0,0)" xlink:href="#v"/><use transform="matrix(0.06790123456790123,0,0,0.06790123456790123,17.586419753086417,0)" xlink:href="#ae"/><use transform="matrix(0.06790123456790123,0,0,0.06790123456790123,31.166666666666664,0)" xlink:href="#ab"/><use transform="matrix(0.06790123456790123,0,0,0.06790123456790123,51.46913580246913,0)" xlink:href="#Q"/><use transform="matrix(0.06790123456790123,0,0,0.06790123456790123,65.04938271604938,0)" xlink:href="#P"/><use transform="matrix(0.06790123456790123,0,0,0.06790123456790123,73.12962962962962,0)" xlink:href="#J"/><path fill="#3a414a" d="M-1.22 1.7h89.15v1.78H-1.22z"/></g><path fill="#3a414a" d="M175 0L67-191c6 58 2 128 3 191H24v-248h59L193-55c-6-58-2-129-3-193h46V0h-61" id="af"/><path fill="#3a414a" d="M67-125c0 53 21 87 73 88 37 1 54-22 65-47l45 17C233-25 199 4 140 4 58 4 20-42 15-125 8-235 124-281 211-232c18 10 29 29 36 50l-46 12c-8-25-30-41-62-41-52 0-71 34-72 86" id="ag"/><g id="k"><use transform="matrix(0.08641975308641973,0,0,0.08641975308641973,0,0)" xlink:href="#y"/><use transform="matrix(0.08641975308641973,0,0,0.08641975308641973,20.740740740740737,0)" xlink:href="#af"/><use transform="matrix(0.08641975308641973,0,0,0.08641975308641973,43.12345679012345,0)" xlink:href="#ag"/><use transform="matrix(0.08641975308641973,0,0,0.08641975308641973,65.50617283950616,0)" xlink:href="#K"/><use transform="matrix(0.08641975308641973,0,0,0.08641975308641973,89.70370370370371,0)" xlink:href="#z"/><use transform="matrix(0.08641975308641973,0,0,0.08641975308641973,115.54320987654319,0)" xlink:href="#y"/><use transform="matrix(0.08641975308641973,0,0,0.08641975308641973,136.28395061728392,0)" xlink:href="#af"/><use transform="matrix(0.08641975308641973,0,0,0.08641975308641973,158.66666666666663,0)" xlink:href="#L"/><use transform="matrix(0.08641975308641973,0,0,0.08641975308641973,181.04938271604934,0)" xlink:href="#D"/></g><path fill="#3a414a" d="M30-248c118-7 216 8 213 122C240-48 200 0 122 0H30v-248zM63-27c89 8 146-16 146-99s-60-101-146-95v194" id="ah"/><path fill="#3a414a" d="M59-47c-2 24 18 29 38 22v24C64 9 27 4 27-40v-127H5v-23h24l9-43h21v43h35v23H59v120" id="ai"/><g id="l"><use transform="matrix(0.06790123456790123,0,0,0.06790123456790123,0,0)" xlink:href="#ah"/><use transform="matrix(0.06790123456790123,0,0,0.06790123456790123,17.586419753086417,0)" xlink:href="#T"/><use transform="matrix(0.06790123456790123,0,0,0.06790123456790123,31.166666666666664,0)" xlink:href="#ai"/><use transform="matrix(0.06790123456790123,0,0,0.06790123456790123,37.95679012345679,0)" xlink:href="#T"/></g><g id="m"><use transform="matrix(0.06790123456790123,0,0,0.06790123456790123,0,0)" xlink:href="#v"/><use transform="matrix(0.06790123456790123,0,0,0.06790123456790123,17.586419753086417,0)" xlink:href="#w"/><use transform="matrix(0.06790123456790123,0,0,0.06790123456790123,24.37654320987654,0)" xlink:href="#x"/></g><path fill="#3a414a" d="M24 0v-248h52v208h133V0H24" id="aj"/><path fill="#3a414a" d="M-4 44V30h207v14H-4" id="ak"/><g id="n"><use transform="matrix(0.08641975308641973,0,0,0.08641975308641973,0,0)" xlink:href="#B"/><use transform="matrix(0.08641975308641973,0,0,0.08641975308641973,22.38271604938271,0)" xlink:href="#y"/><use transform="matrix(0.08641975308641973,0,0,0.08641975308641973,43.12345679012345,0)" xlink:href="#aj"/><use transform="matrix(0.08641975308641973,0,0,0.08641975308641973,62.04938271604937,0)" xlink:href="#ak"/><use transform="matrix(0.08641975308641973,0,0,0.08641975308641973,79.33333333333331,0)" xlink:href="#A"/><use transform="matrix(0.08641975308641973,0,0,0.08641975308641973,100.07407407407405,0)" xlink:href="#B"/><use transform="matrix(0.08641975308641973,0,0,0.08641975308641973,122.45679012345677,0)" xlink:href="#K"/><use transform="matrix(0.08641975308641973,0,0,0.08641975308641973,146.65432098765427,0)" xlink:href="#L"/><use transform="matrix(0.08641975308641973,0,0,0.08641975308641973,169.03703703703698,0)" xlink:href="#ak"/><use transform="matrix(0.08641975308641973,0,0,0.08641975308641973,186.32098765432096,0)" xlink:href="#y"/><use transform="matrix(0.08641975308641973,0,0,0.08641975308641973,207.06172839506164,0)" xlink:href="#af"/><use transform="matrix(0.08641975308641973,0,0,0.08641975308641973,229.44444444444434,0)" xlink:href="#ag"/></g><path fill="#3a414a" d="M76-208v77h127v40H76V0H24v-248h183v40H76" id="al"/><g id="o"><use transform="matrix(0.08641975308641973,0,0,0.08641975308641973,0,0)" xlink:href="#al"/><use transform="matrix(0.08641975308641973,0,0,0.08641975308641973,18.92592592592592,0)" xlink:href="#K"/><use transform="matrix(0.08641975308641973,0,0,0.08641975308641973,43.12345679012344,0)" xlink:href="#B"/><use transform="matrix(0.08641975308641973,0,0,0.08641975308641973,65.50617283950615,0)" xlink:href="#af"/><use transform="matrix(0.08641975308641973,0,0,0.08641975308641973,87.88888888888886,0)" xlink:href="#y"/><use transform="matrix(0.08641975308641973,0,0,0.08641975308641973,108.62962962962959,0)" xlink:href="#ag"/><use transform="matrix(0.08641975308641973,0,0,0.08641975308641973,131.0123456790123,0)" xlink:href="#y"/><use transform="matrix(0.08641975308641973,0,0,0.08641975308641973,151.75308641975303,0)" xlink:href="#L"/><use transform="matrix(0.08641975308641973,0,0,0.08641975308641973,174.13580246913574,0)" xlink:href="#K"/><use transform="matrix(0.08641975308641973,0,0,0.08641975308641973,198.33333333333326,0)" xlink:href="#B"/></g><g id="p"><use transform="matrix(0.06790123456790123,0,0,0.06790123456790123,0,0)" xlink:href="#v"/><use transform="matrix(0.06790123456790123,0,0,0.06790123456790123,17.586419753086417,0)" xlink:href="#J"/><use transform="matrix(0.06790123456790123,0,0,0.06790123456790123,31.166666666666664,0)" xlink:href="#ab"/><use transform="matrix(0.06790123456790123,0,0,0.06790123456790123,51.46913580246913,0)" xlink:href="#Q"/></g><g id="q"><use transform="matrix(0.06790123456790123,0,0,0.06790123456790123,0,0)" xlink:href="#x"/><use transform="matrix(0.06790123456790123,0,0,0.06790123456790123,14.87037037037037,0)" xlink:href="#T"/><use transform="matrix(0.06790123456790123,0,0,0.06790123456790123,28.450617283950617,0)" xlink:href="#U"/></g><path fill="#3a414a" d="M115-194c55 1 70 41 70 98S169 2 115 4C84 4 66-9 55-30l1 105H24l-1-265h31l2 30c10-21 28-34 59-34zm-8 174c40 0 45-34 45-75s-6-73-45-74c-42 0-51 32-51 76 0 43 10 73 51 73" id="am"/><g id="r"><use transform="matrix(0.06790123456790123,0,0,0.06790123456790123,0,0)" xlink:href="#E"/><use transform="matrix(0.06790123456790123,0,0,0.06790123456790123,17.586419753086417,0)" xlink:href="#F"/><use transform="matrix(0.06790123456790123,0,0,0.06790123456790123,31.166666666666664,0)" xlink:href="#G"/><use transform="matrix(0.06790123456790123,0,0,0.06790123456790123,44.74691358024691,0)" xlink:href="#H"/><use transform="matrix(0.06790123456790123,0,0,0.06790123456790123,50.11111111111111,0)" xlink:href="#I"/><use transform="matrix(0.06790123456790123,0,0,0.06790123456790123,63.691358024691354,0)" xlink:href="#J"/><use transform="matrix(0.06790123456790123,0,0,0.06790123456790123,77.2716049382716,0)" xlink:href="#V"/><use transform="matrix(0.06790123456790123,0,0,0.06790123456790123,90.85185185185185,0)" xlink:href="#G"/><use transform="matrix(0.06790123456790123,0,0,0.06790123456790123,104.4320987654321,0)" xlink:href="#Q"/><use transform="matrix(0.06790123456790123,0,0,0.06790123456790123,118.01234567901236,0)" xlink:href="#V"/><use transform="matrix(0.06790123456790123,0,0,0.06790123456790123,131.5925925925926,0)" xlink:href="#ai"/><use transform="matrix(0.06790123456790123,0,0,0.06790123456790123,138.38271604938274,0)" xlink:href="#H"/><use transform="matrix(0.06790123456790123,0,0,0.06790123456790123,143.74691358024694,0)" xlink:href="#am"/><use transform="matrix(0.06790123456790123,0,0,0.06790123456790123,157.3271604938272,0)" xlink:href="#J"/></g><path fill="#3a414a" d="M100-194c62-1 85 37 85 99 1 63-27 99-86 99S16-35 15-95c0-66 28-99 85-99zM99-20c44 1 53-31 53-75 0-43-8-75-51-75s-53 32-53 75 10 74 51 75zm66-238c-3 23-9 48-36 47-26-1-65-44-74 0H39c4-23 8-48 36-47s64 44 74 0h16" id="an"/><g id="s"><use transform="matrix(0.06790123456790123,0,0,0.06790123456790123,0,0)" xlink:href="#E"/><use transform="matrix(0.06790123456790123,0,0,0.06790123456790123,17.586419753086417,0)" xlink:href="#J"/><use transform="matrix(0.06790123456790123,0,0,0.06790123456790123,31.166666666666664,0)" xlink:href="#Z"/><use transform="matrix(0.06790123456790123,0,0,0.06790123456790123,44.74691358024691,0)" xlink:href="#G"/><use transform="matrix(0.06790123456790123,0,0,0.06790123456790123,58.32716049382716,0)" xlink:href="#H"/><use transform="matrix(0.06790123456790123,0,0,0.06790123456790123,63.691358024691354,0)" xlink:href="#R"/><use transform="matrix(0.06790123456790123,0,0,0.06790123456790123,75.91358024691358,0)" xlink:href="#an"/><use transform="matrix(0.06790123456790123,0,0,0.06790123456790123,89.49382716049382,0)" xlink:href="#Q"/><use transform="matrix(0.06790123456790123,0,0,0.06790123456790123,103.07407407407409,0)" xlink:href="#aa"/><use transform="matrix(0.06790123456790123,0,0,0.06790123456790123,115.2962962962963,0)" xlink:href="#V"/><use transform="matrix(0.06790123456790123,0,0,0.06790123456790123,128.87654320987656,0)" xlink:href="#G"/><use transform="matrix(0.06790123456790123,0,0,0.06790123456790123,142.4567901234568,0)" xlink:href="#Q"/><use transform="matrix(0.06790123456790123,0,0,0.06790123456790123,156.03703703703707,0)" xlink:href="#V"/></g><g id="t"><use transform="matrix(0.06790123456790123,0,0,0.06790123456790123,0,0)" xlink:href="#V"/><use transform="matrix(0.06790123456790123,0,0,0.06790123456790123,13.580246913580247,0)" xlink:href="#am"/><use transform="matrix(0.06790123456790123,0,0,0.06790123456790123,27.160493827160494,0)" xlink:href="#T"/><use transform="matrix(0.06790123456790123,0,0,0.06790123456790123,40.74074074074074,0)" xlink:href="#I"/><use transform="matrix(0.06790123456790123,0,0,0.06790123456790123,54.32098765432099,0)" xlink:href="#T"/><use transform="matrix(0.06790123456790123,0,0,0.06790123456790123,67.90123456790124,0)" xlink:href="#ab"/><use transform="matrix(0.06790123456790123,0,0,0.06790123456790123,88.20370370370371,0)" xlink:href="#Q"/><use transform="matrix(0.06790123456790123,0,0,0.06790123456790123,101.78395061728395,0)" xlink:href="#Z"/><use transform="matrix(0.06790123456790123,0,0,0.06790123456790123,115.3641975308642,0)" xlink:href="#ai"/><use transform="matrix(0.06790123456790123,0,0,0.06790123456790123,122.15432098765433,0)" xlink:href="#J"/></g><g id="u"><use transform="matrix(0.08641975308641973,0,0,0.08641975308641973,0,0)" xlink:href="#B"/><use transform="matrix(0.08641975308641973,0,0,0.08641975308641973,22.38271604938271,0)" xlink:href="#y"/><use transform="matrix(0.08641975308641973,0,0,0.08641975308641973,43.12345679012345,0)" xlink:href="#aj"/><use transform="matrix(0.08641975308641973,0,0,0.08641975308641973,62.04938271604937,0)" xlink:href="#ak"/><use transform="matrix(0.08641975308641973,0,0,0.08641975308641973,79.33333333333331,0)" xlink:href="#y"/><use transform="matrix(0.08641975308641973,0,0,0.08641975308641973,100.07407407407405,0)" xlink:href="#af"/><use transform="matrix(0.08641975308641973,0,0,0.08641975308641973,122.45679012345677,0)" xlink:href="#ag"/><use transform="matrix(0.08641975308641973,0,0,0.08641975308641973,144.83950617283946,0)" xlink:href="#ak"/><use transform="matrix(0.08641975308641973,0,0,0.08641975308641973,162.1234567901234,0)" xlink:href="#al"/><use transform="matrix(0.08641975308641973,0,0,0.08641975308641973,181.04938271604934,0)" xlink:href="#K"/><use transform="matrix(0.08641975308641973,0,0,0.08641975308641973,205.24691358024688,0)" xlink:href="#B"/><use transform="matrix(0.08641975308641973,0,0,0.08641975308641973,227.6296296296296,0)" xlink:href="#af"/></g></defs></g></svg>