<svg xmlns="http://www.w3.org/2000/svg" xmlns:xlink="http://www.w3.org/1999/xlink" xmlns:lucid="lucid" width="1720" height="1400"><g transform="translate(-40 0)" lucid:page-tab-id="0_0"><path d="M0 0h2000v1500H0z" fill="#fff"/><path d="M800 209a9 9 0 0 1 9-9h182a9 9 0 0 1 9 9v82a9 9 0 0 1-9 9H809a9 9 0 0 1-9-9zM643.64 206.36a9 9 0 0 1 12.72 0l37.28 37.28a9 9 0 0 1 0 12.72l-37.28 37.28a9 9 0 0 1-12.72 0l-37.28-37.28a9 9 0 0 1 0-12.72zM1143.64 206.36a9 9 0 0 1 12.72 0l37.28 37.28a9 9 0 0 1 0 12.72l-37.28 37.28a9 9 0 0 1-12.72 0l-37.28-37.28a9 9 0 0 1 0-12.72zM893.64 406.36a9 9 0 0 1 12.72 0l37.28 37.28a9 9 0 0 1 0 12.72l-37.28 37.28a9 9 0 0 1-12.72 0l-37.28-37.28a9 9 0 0 1 0-12.72zM393.64 806.36a9 9 0 0 1 12.72 0l37.28 37.28a9 9 0 0 1 0 12.72l-37.28 37.28a9 9 0 0 1-12.72 0l-37.28-37.28a9 9 0 0 1 0-12.72zM300 1009a9 9 0 0 1 9-9h182a9 9 0 0 1 9 9v82a9 9 0 0 1-9 9H309a9 9 0 0 1-9-9z" stroke="#3a414a" fill="#edf5ff"/><path d="M500 220h40v20h-40z" fill="none"/><use xlink:href="#a" transform="matrix(1,0,0,1,500,220) translate(13.827160493827162 17.77777777777778)"/><path d="M810 216a6 6 0 0 1 6-6h168a6 6 0 0 1 6 6v68a6 6 0 0 1-6 6H816a6 6 0 0 1-6-6z" stroke="#3a414a" fill="#edf5ff"/><use xlink:href="#b" transform="matrix(1,0,0,1,822,222) translate(21.24074074074074 31.77777777777778)"/><path d="M300 206a6 6 0 0 1 6-6h188a6 6 0 0 1 6 6v88a6 6 0 0 1-6 6H306a6 6 0 0 1-6-6z" stroke="#3a414a" fill="#edf5ff"/><use xlink:href="#c" transform="matrix(1,0,0,1,312,212) translate(49.82098765432099 41.52777777777778)"/><path d="M1300 206a6 6 0 0 1 6-6h188a6 6 0 0 1 6 6v88a6 6 0 0 1-6 6h-188a6 6 0 0 1-6-6z" stroke="#3a414a" fill="#edf5ff"/><use xlink:href="#d" transform="matrix(1,0,0,1,1312,212) translate(42.382716049382715 41.52777777777778)"/><path d="M800 606a6 6 0 0 1 6-6h188a6 6 0 0 1 6 6v88a6 6 0 0 1-6 6H806a6 6 0 0 1-6-6z" stroke="#3a414a" fill="#edf5ff"/><use xlink:href="#e" transform="matrix(1,0,0,1,812,612) translate(41.76543209876543 41.52777777777778)"/><path d="M310 1016a6 6 0 0 1 6-6h168a6 6 0 0 1 6 6v68a6 6 0 0 1-6 6H316a6 6 0 0 1-6-6z" stroke="#3a414a" fill="#edf5ff"/><use xlink:href="#f" transform="matrix(1,0,0,1,322,1022) translate(47.19753086419753 21.27777777777778)"/><use xlink:href="#g" transform="matrix(1,0,0,1,322,1022) translate(26.179012345679013 47.94444444444444)"/><path d="M800 1006a6 6 0 0 1 6-6h188a6 6 0 0 1 6 6v88a6 6 0 0 1-6 6H806a6 6 0 0 1-6-6z" stroke="#3a414a" fill="#edf5ff"/><use xlink:href="#h" transform="matrix(1,0,0,1,812,1012) translate(16.48765432098766 41.52777777777778)"/><path d="M1300 1006a6 6 0 0 1 6-6h188a6 6 0 0 1 6 6v88a6 6 0 0 1-6 6h-188a6 6 0 0 1-6-6z" stroke="#3a414a" fill="#edf5ff"/><use xlink:href="#i" transform="matrix(1,0,0,1,1312,1012) translate(39.26543209876543 41.52777777777778)"/><path d="M200 60c0 22.1-31.34 40-70 40S60 82.1 60 60s31.34-40 70-40 70 17.9 70 40z" stroke="#3a414a" fill="#edf5ff"/><use xlink:href="#j" transform="matrix(1,0,0,1,65,25) translate(25.586419753086417 39.65277777777778)"/><path d="M200 250c0 22.1-31.34 40-70 40s-70-17.9-70-40 31.34-40 70-40 70 17.9 70 40z" stroke="#3a414a" fill="#edf5ff"/><use xlink:href="#k" transform="matrix(1,0,0,1,65,215) translate(35.4320987654321 39.65277777777778)"/><path d="M480 60c0 22.1-35.82 40-80 40s-80-17.9-80-40 35.82-40 80-40 80 17.9 80 40z" stroke="#3a414a" fill="#edf5ff"/><use xlink:href="#l" transform="matrix(1,0,0,1,325,25) translate(5.956790123456784 39.65277777777778)"/><path d="M201 250h98" stroke="#3a414a" fill="none"/><path d="M201 250.5h-.52l.02-.5-.02-.5h.53zM299.5 250.5h-.5v-1h.5z" stroke="#3a414a" stroke-width=".05" fill="#3a414a"/><path d="M400 101v98" stroke="#3a414a" fill="none"/><path d="M400 100.5h.5v.5h-1v-.52zM400.5 199.5h-1v-.5h1z" stroke="#3a414a" stroke-width=".05" fill="#3a414a"/><path d="M130 101v43a6 6 0 0 0 6 6h199.33a6 6 0 0 1 6 6v43" stroke="#3a414a" fill="none"/><path d="M130 100.5l.5-.02v.53h-1v-.52zM341.83 199.5h-1v-.5h1z" stroke="#3a414a" stroke-width=".05" fill="#3a414a"/><path d="M740 60c0 22.1-31.34 40-70 40s-70-17.9-70-40 31.34-40 70-40 70 17.9 70 40z" stroke="#3a414a" fill="#edf5ff"/><use xlink:href="#j" transform="matrix(1,0,0,1,605,25) translate(25.586419753086417 39.65277777777778)"/><path d="M670 101v43a6 6 0 0 0 6 6h178.76a6 6 0 0 1 6 6v43" stroke="#3a414a" fill="none"/><path d="M670 100.5l.5-.02v.53h-1v-.52zM861.26 199.5h-1v-.5h1z" stroke="#3a414a" stroke-width=".05" fill="#3a414a"/><path d="M970 60c0 22.1-31.34 40-70 40s-70-17.9-70-40 31.34-40 70-40 70 17.9 70 40z" stroke="#3a414a" fill="#edf5ff"/><use xlink:href="#m" transform="matrix(1,0,0,1,835,25) translate(2.746913580246911 39.65277777777778)"/><use xlink:href="#n" transform="matrix(1,0,0,1,835,25) translate(55.7716049382716 39.65277777777778)"/><path d="M900 101v98.5" stroke="#3a414a" fill="none"/><path d="M900 100.5l.5-.02v.53h-1v-.52z" stroke="#3a414a" stroke-width=".05" fill="#3a414a"/><path d="M900 199.5v.5" stroke="#3a414a" fill="none"/><path d="M1200 60c0 22.1-31.34 40-70 40s-70-17.9-70-40 31.34-40 70-40 70 17.9 70 40z" stroke="#3a414a" fill="#edf5ff"/><use xlink:href="#o" transform="matrix(1,0,0,1,1065,25) translate(41.57907407407408 24.34027777777778)"/><use xlink:href="#p" transform="matrix(1,0,0,1,1065,25) translate(13.832160493827155 51.00694444444445)"/><path d="M1130 101v43a6 6 0 0 1-6 6H945.9a6 6 0 0 0-6 6v43" stroke="#3a414a" fill="none"/><path d="M1130 100.5l.5-.02v.53h-1v-.52zM940.4 199.5h-1v-.5h1z" stroke="#3a414a" stroke-width=".05" fill="#3a414a"/><path d="M1470 60c0 22.1-31.34 40-70 40s-70-17.9-70-40 31.34-40 70-40 70 17.9 70 40z" stroke="#3a414a" fill="#edf5ff"/><use xlink:href="#q" transform="matrix(1,0,0,1,1335,25) translate(25.591419753086413 26.52777777777778)"/><use xlink:href="#r" transform="matrix(1,0,0,1,1335,25) translate(34.1408024691358 53.19444444444445)"/><path d="M1740 60c0 22.1-31.34 40-70 40s-70-17.9-70-40 31.34-40 70-40 70 17.9 70 40z" stroke="#3a414a" fill="#edf5ff"/><use xlink:href="#s" transform="matrix(1,0,0,1,1605,25) translate(35.4320987654321 39.65277777777778)"/><path d="M1740 250c0 22.1-31.34 40-70 40s-70-17.9-70-40 31.34-40 70-40 70 17.9 70 40z" stroke="#3a414a" fill="#edf5ff"/><use xlink:href="#o" transform="matrix(1,0,0,1,1605,215) translate(41.57907407407407 22.15277777777778)"/><use xlink:href="#t" transform="matrix(1,0,0,1,1605,215) translate(8.276604938271598 48.81944444444444)"/><path d="M1740 380c0 22.1-31.34 40-70 40s-70-17.9-70-40 31.34-40 70-40 70 17.9 70 40z" stroke="#3a414a" fill="#edf5ff"/><use xlink:href="#u" transform="matrix(1,0,0,1,1605,345) translate(17.5 39.65277777777778)"/><path d="M1400 101v98" stroke="#3a414a" fill="none"/><path d="M1400 100.5l.5-.02v.53h-1v-.52zM1400.5 199.5h-1v-.5h1z" stroke="#3a414a" stroke-width=".05" fill="#3a414a"/><path d="M1670 101v43a6 6 0 0 1-6 6h-207.33a6 6 0 0 0-6 6v43" stroke="#3a414a" fill="none"/><path d="M1670 100.5l.5-.02v.53h-1v-.52zM1451.17 199.5h-1v-.5h1z" stroke="#3a414a" stroke-width=".05" fill="#3a414a"/><path d="M1599 250h-98" stroke="#3a414a" fill="none"/><path d="M1599.5 250l.02.5h-.53v-1h.52zM1501 250.5h-.5v-1h.5z" stroke="#3a414a" stroke-width=".05" fill="#3a414a"/><path d="M1599 380h-43a6 6 0 0 1-6-6v-90.67a6 6 0 0 0-6-6h-43" stroke="#3a414a" fill="none"/><path d="M1599.5 380l.02.5h-.53v-1h.52zM1501 277.83h-.5v-1h.5z" stroke="#3a414a" stroke-width=".05" fill="#3a414a"/><path d="M470 450c0 22.1-31.34 40-70 40s-70-17.9-70-40 31.34-40 70-40 70 17.9 70 40z" stroke="#3a414a" fill="#edf5ff"/><use xlink:href="#v" transform="matrix(1,0,0,1,335,415) translate(24.382716049382715 39.65277777777778)"/><path d="M840.07 599v-48a6 6 0 0 0-6-6H406a6 6 0 0 1-6-6v-48" stroke="#3a414a" fill="none"/><path d="M840.57 599.5h-1v-.5h1zM400 490.5l.5-.02v.53h-1v-.52z" stroke="#3a414a" stroke-width=".05" fill="#3a414a"/><path d="M740 1240c0 22.1-31.34 40-70 40s-70-17.9-70-40 31.34-40 70-40 70 17.9 70 40z" stroke="#3a414a" fill="#edf5ff"/><use xlink:href="#q" transform="matrix(1,0,0,1,605,1205) translate(25.591419753086413 26.52777777777778)"/><use xlink:href="#w" transform="matrix(1,0,0,1,605,1205) translate(31.733395061728388 53.19444444444445)"/><path d="M880 1340c0 22.1-31.34 40-70 40s-70-17.9-70-40 31.34-40 70-40 70 17.9 70 40z" stroke="#3a414a" fill="#edf5ff"/><use xlink:href="#s" transform="matrix(1,0,0,1,745,1305) translate(35.4320987654321 39.65277777777778)"/><path d="M1200 1240c0 22.1-31.34 40-70 40s-70-17.9-70-40 31.34-40 70-40 70 17.9 70 40z" stroke="#3a414a" fill="#edf5ff"/><use xlink:href="#u" transform="matrix(1,0,0,1,1065,1205) translate(17.5 39.65277777777778)"/><path d="M670 1199v-43a6 6 0 0 1 6-6h159.33a6 6 0 0 0 6-6v-43" stroke="#3a414a" fill="none"/><path d="M670.5 1199.52l-.5-.02-.5.02v-.53h1zM841.83 1101h-1v-.5h1z" stroke="#3a414a" stroke-width=".05" fill="#3a414a"/><path d="M810 1299v-93a6 6 0 0 1 6-6h56.67a6 6 0 0 0 6-6v-93" stroke="#3a414a" fill="none"/><path d="M810.5 1299.52l-.5-.02-.5.02v-.53h1zM879.17 1101h-1v-.5h1z" stroke="#3a414a" stroke-width=".05" fill="#3a414a"/><path d="M1130 1199v-43a6 6 0 0 0-6-6H967.33a6 6 0 0 1-6-6v-43" stroke="#3a414a" fill="none"/><path d="M1130.5 1199.52l-.5-.02-.5.02v-.53h1zM961.83 1101h-1v-.5h1z" stroke="#3a414a" stroke-width=".05" fill="#3a414a"/><path d="M1060 1340c0 22.1-31.34 40-70 40s-70-17.9-70-40 31.34-40 70-40 70 17.9 70 40z" stroke="#3a414a" fill="#edf5ff"/><use xlink:href="#x" transform="matrix(1,0,0,1,925,1305) translate(23.086419753086417 39.65277777777778)"/><path d="M990 1299v-93a6 6 0 0 0-6-6h-54a6 6 0 0 1-6-6v-93" stroke="#3a414a" fill="none"/><path d="M990.5 1299.52l-.5-.02-.5.02v-.53h1zM924.5 1101h-1v-.5h1z" stroke="#3a414a" stroke-width=".05" fill="#3a414a"/><path d="M1470 1240c0 22.1-31.34 40-70 40s-70-17.9-70-40 31.34-40 70-40 70 17.9 70 40z" stroke="#3a414a" fill="#edf5ff"/><use xlink:href="#y" transform="matrix(1,0,0,1,1335,1205) translate(47.160493827160494 39.65277777777778)"/><path d="M1740 1240c0 22.1-31.34 40-70 40s-70-17.9-70-40 31.34-40 70-40 70 17.9 70 40z" stroke="#3a414a" fill="#edf5ff"/><use xlink:href="#s" transform="matrix(1,0,0,1,1605,1205) translate(35.4320987654321 39.65277777777778)"/><path d="M1740 1050c0 22.1-31.34 40-70 40s-70-17.9-70-40 31.34-40 70-40 70 17.9 70 40z" stroke="#3a414a" fill="#edf5ff"/><use xlink:href="#x" transform="matrix(1,0,0,1,1605,1015) translate(23.086419753086417 39.65277777777778)"/><path d="M1740 920c0 22.1-31.34 40-70 40s-70-17.9-70-40 31.34-40 70-40 70 17.9 70 40z" stroke="#3a414a" fill="#edf5ff"/><use xlink:href="#u" transform="matrix(1,0,0,1,1605,885) translate(17.5 39.65277777777778)"/><path d="M1400 1101v98" stroke="#3a414a" fill="none"/><path d="M1400.5 1101h-1v-.5h1zM1400.5 1199.52l-.5-.02-.5.02v-.53h1z" stroke="#3a414a" stroke-width=".05" fill="#3a414a"/><path d="M1450.67 1101v43a6 6 0 0 0 6 6H1664a6 6 0 0 1 6 6v43" stroke="#3a414a" fill="none"/><path d="M1451.17 1101h-1v-.5h1zM1670.5 1199.52l-.5-.02-.5.02v-.53h1z" stroke="#3a414a" stroke-width=".05" fill="#3a414a"/><path d="M1501 1050h98" stroke="#3a414a" fill="none"/><path d="M1501 1050.5h-.5v-1h.5zM1599.5 1050l.02.5h-.53v-1h.52z" stroke="#3a414a" stroke-width=".05" fill="#3a414a"/><path d="M1501 1020h43.02a6 6 0 0 0 6-6v-87.03a6 6 0 0 1 6-6h43" stroke="#3a414a" fill="none"/><path d="M1501 1020.5h-.5v-1h.5zM1599.55 921.47h-.53v-1h.5z" stroke="#3a414a" stroke-width=".05" fill="#3a414a"/><path d="M645.76 209.24a6 6 0 0 1 8.48 0l36.52 36.52a6 6 0 0 1 0 8.48l-36.52 36.52a6 6 0 0 1-8.48 0l-36.52-36.52a6 6 0 0 1 0-8.48z" stroke="#3a414a" fill="#edf5ff"/><use xlink:href="#z" transform="matrix(1,0,0,1,610,210) translate(9.140802469135801 43.78777777777778)"/><path d="M501 250h101.73" stroke="#3a414a" fill="none"/><path d="M501 250.5h-.5v-1h.5zM603.23 250l.04.5h-.56v-1h.57z" stroke="#3a414a" stroke-width=".05" fill="#3a414a"/><path d="M697.27 249H799M697.27 251H799" stroke="#3a414a" fill="none"/><path d="M697.3 249.5h-.57l-.07-1h.63zM697.3 251.5h-.65l.08-1h.56zM799.5 249.5h-.5v-1h.5zM799.5 251.5h-.5v-1h.5z" stroke="#3a414a" stroke-width=".05" fill="#3a414a"/><path d="M1001 249h101.73M1001 251h101.73" stroke="#3a414a" fill="none"/><path d="M1001 249.5h-.5v-1h.5zM1001 251.5h-.5v-1h.5zM1103.34 248.5l-.07 1h-.56v-1h.65zM1103.34 251.5h-.63v-1h.57z" stroke="#3a414a" stroke-width=".05" fill="#3a414a"/><path d="M1197.27 250H1299" stroke="#3a414a" fill="none"/><path d="M1197.3 250.5h-.57l.04-.5-.04-.5h.56zM1299.5 250.5h-.5v-1h.5z" stroke="#3a414a" stroke-width=".05" fill="#3a414a"/><path d="M901 301v101.73M899 301v101.73" stroke="#3a414a" fill="none"/><path d="M901.5 301h-1v-.5h1zM899.5 301h-1v-.5h1zM901.5 403.35l-1-.08v-.56h1zM899.5 403.27l-1 .07v-.63h1z" stroke="#3a414a" stroke-width=".05" fill="#3a414a"/><path d="M900 497.27V599" stroke="#3a414a" fill="none"/><path d="M900 496.77l.5-.04v.56h-1v-.57zM900.5 599.5h-1v-.5h1z" stroke="#3a414a" stroke-width=".05" fill="#3a414a"/><path d="M1145.76 209.24a6 6 0 0 1 8.48 0l36.52 36.52a6 6 0 0 1 0 8.48l-36.52 36.52a6 6 0 0 1-8.48 0l-36.52-36.52a6 6 0 0 1 0-8.48z" stroke="#3a414a" fill="#edf5ff"/><use xlink:href="#A" transform="matrix(1,0,0,1,1110,210) translate(5.481481481481488 43.55555555555556)"/><path d="M895.76 409.24a6 6 0 0 1 8.48 0l36.52 36.52a6 6 0 0 1 0 8.48l-36.52 36.52a6 6 0 0 1-8.48 0l-36.52-36.52a6 6 0 0 1 0-8.48z" stroke="#3a414a" fill="#edf5ff"/><use xlink:href="#B" transform="matrix(1,0,0,1,860,410.00000000000006) translate(7.250000000000007 44)"/><path d="M760 220h40v20h-40z" fill="none"/><use xlink:href="#C" transform="matrix(1,0,0,1,760,220) translate(12.006172839506174 17.77777777777778)"/><path d="M1000 220h40v20h-40z" fill="none"/><use xlink:href="#C" transform="matrix(1,0,0,1,1000,220) translate(12.006172839506174 17.77777777777778)"/><path d="M1260 220h40v20h-40z" fill="none"/><use xlink:href="#a" transform="matrix(1,0,0,1,1260,220) translate(13.827160493827162 17.77777777777778)"/><path d="M900 560h40v40h-40z" fill="none"/><use xlink:href="#D" transform="matrix(1,0,0,1,900,560) translate(10.771604938271606 24.444444444444443)"/><path d="M900 300h40v40h-40z" fill="none"/><use xlink:href="#C" transform="matrix(1,0,0,1,900,300.00000000000006) translate(12.006172839506174 24.444444444444443)"/><path d="M395.76 809.24a6 6 0 0 1 8.48 0l36.52 36.52a6 6 0 0 1 0 8.48l-36.52 36.52a6 6 0 0 1-8.48 0l-36.52-36.52a6 6 0 0 1 0-8.48z" stroke="#3a414a" fill="#edf5ff"/><use xlink:href="#E" transform="matrix(1,0,0,1,360,810) translate(11.143888888888897 43.5)"/><path d="M401 897.27V999M399 897.27V999" stroke="#3a414a" fill="none"/><path d="M401.5 897.3h-1v-.57l1-.07zM398.5 896.66l1 .07v.56h-1v-.65zM401.5 999.5h-1v-.5h1zM399.5 999.5h-1v-.5h1z" stroke="#3a414a" stroke-width=".05" fill="#3a414a"/><path d="M400 802.73V656a6 6 0 0 1 6-6h393" stroke="#3a414a" fill="none"/><path d="M400.5 803.27l-.5-.04-.5.04v-.56h1zM799.5 650.5h-.5v-1h.5z" stroke="#3a414a" stroke-width=".05" fill="#3a414a"/><path d="M400 960h40v40h-40z" fill="none"/><use xlink:href="#C" transform="matrix(1,0,0,1,400,960) translate(12.006172839506174 24.444444444444443)"/><path d="M760 620h40v20h-40z" fill="none"/><use xlink:href="#a" transform="matrix(1,0,0,1,760,620) translate(13.827160493827162 17.77777777777778)"/><path d="M895.76 805.5a6 6 0 0 1 8.48 0l40.27 40.26a6 6 0 0 1 0 8.48l-40.26 40.27a6 6 0 0 1-8.48 0l-40.27-40.26a6 6 0 0 1 0-8.48z" stroke="#3a414a" fill="#edf5ff"/><use xlink:href="#F" transform="matrix(1,0,0,1,856.25,806.25) translate(9.912407407407409 42.45444444444445)"/><use xlink:href="#G" transform="matrix(1,0,0,1,856.25,806.25) translate(32.29203703703704 61.121111111111105)"/><path d="M900 897.27V999" stroke="#3a414a" fill="none"/><path d="M900 896.77l.5-.04v.55h-1v-.55zM900.5 999.5h-1v-.5h1z" stroke="#3a414a" stroke-width=".05" fill="#3a414a"/><path d="M900 802.73V701" stroke="#3a414a" fill="none"/><path d="M900.5 803.27l-.5-.04-.5.04v-.55h1zM900.5 701h-1v-.5h1z" stroke="#3a414a" stroke-width=".05" fill="#3a414a"/><path d="M900 960h40v40h-40z" fill="none"/><use xlink:href="#D" transform="matrix(1,0,0,1,900,960) translate(10.771604938271606 24.444444444444443)"/><path d="M900 700h40v40h-40z" fill="none"/><use xlink:href="#C" transform="matrix(1,0,0,1,900,700) translate(12.006172839506174 24.444444444444443)"/><path d="M1395.76 805.5a6 6 0 0 1 8.48 0l40.27 40.26a6 6 0 0 1 0 8.48l-40.26 40.27a6 6 0 0 1-8.48 0l-40.27-40.26a6 6 0 0 1 0-8.48z" stroke="#3a414a" fill="#edf5ff"/><use xlink:href="#H" transform="matrix(1,0,0,1,1356.25,806.25) translate(9.579074074074088 40.67666666666666)"/><use xlink:href="#I" transform="matrix(1,0,0,1,1356.25,806.25) translate(26.856851851851857 56.676666666666655)"/><path d="M978.4 301v143a6 6 0 0 0 6 6H1394a6 6 0 0 1 6 6v346.73" stroke="#3a414a" fill="none"/><path d="M978.9 301h-1v-.5h1zM1400.5 803.27l-.5-.04-.5.04v-.55h1z" stroke="#3a414a" stroke-width=".05" fill="#3a414a"/><path d="M1400 897.27V999" stroke="#3a414a" fill="none"/><path d="M1400 896.77l.5-.04v.55h-1v-.55zM1400.5 999.5h-1v-.5h1z" stroke="#3a414a" stroke-width=".05" fill="#3a414a"/><path d="M980 300h40v40h-40z" fill="none"/><use xlink:href="#C" transform="matrix(1,0,0,1,980,300.00000000000006) translate(12.006172839506174 24.444444444444443)"/><path d="M1400 960h40v40h-40z" fill="none"/><use xlink:href="#a" transform="matrix(1,0,0,1,1400,960) translate(13.827160493827162 24.444444444444443)"/><path d="M1164.5 805.5a6 6 0 0 1 8.5 0l40.26 40.26a6 6 0 0 1 0 8.48L1173 894.5a6 6 0 0 1-8.5 0l-40.26-40.26a6 6 0 0 1 0-8.48z" stroke="#3a414a" fill="#edf5ff"/><use xlink:href="#J" transform="matrix(1,0,0,1,1125,806.25) translate(16.80438271604939 38.19444444444444)"/><use xlink:href="#K" transform="matrix(1,0,0,1,1125,806.25) translate(24.082160493827175 56.8611111111111)"/><path d="M1001 650h161.75a6 6 0 0 1 6 6v146.73" stroke="#3a414a" fill="none"/><path d="M1001 650.5h-.5v-1h.5zM1169.25 803.27l-.5-.04-.5.04v-.55h1z" stroke="#3a414a" stroke-width=".05" fill="#3a414a"/><path d="M1168.75 897.27V1044a6 6 0 0 0 6 6H1299" stroke="#3a414a" fill="none"/><path d="M1168.75 896.77l.5-.04v.55h-1v-.55zM1299.5 1050.5h-.5v-1h.5z" stroke="#3a414a" stroke-width=".05" fill="#3a414a"/><path d="M1260 1010h40v40h-40z" fill="none"/><g><use xlink:href="#D" transform="matrix(1,0,0,1,1260,1010) translate(10.771604938271606 24.444444444444443)"/></g><path d="M1000 610h40v40h-40z" fill="none"/><g><use xlink:href="#C" transform="matrix(1,0,0,1,1000,610) translate(12.006172839506174 24.444444444444443)"/></g><defs><path fill="#3a414a" d="M27 0v-27h64v-190l-56 39v-29l58-41h29v221h61V0H27" id="L"/><use transform="matrix(0.06172839506172839,0,0,0.06172839506172839,0,0)" xlink:href="#L" id="a"/><path fill="#3a414a" d="M24-248c93 1 206-16 204 79-1 75-69 88-152 82V0H24v-248zm52 121c47 0 100 7 100-41 0-47-54-39-100-39v80" id="M"/><path fill="#3a414a" d="M135-150c-39-12-60 13-60 57V0H25l-1-190h47c2 13-1 29 3 40 6-28 27-53 61-41v41" id="N"/><path fill="#3a414a" d="M185-48c-13 30-37 53-82 52C43 2 14-33 14-96s30-98 90-98c62 0 83 45 84 108H66c0 31 8 55 39 56 18 0 30-7 34-22zm-45-69c5-46-57-63-70-21-2 6-4 13-4 21h74" id="O"/><path fill="#3a414a" d="M137-138c1-29-70-34-71-4 15 46 118 7 119 86 1 83-164 76-172 9l43-7c4 19 20 25 44 25 33 8 57-30 24-41C81-84 22-81 20-136c-2-80 154-74 161-7" id="P"/><path fill="#3a414a" d="M190-63c-7 42-38 67-86 67-59 0-84-38-90-98-12-110 154-137 174-36l-49 2c-2-19-15-32-35-32-30 0-35 28-38 64-6 74 65 87 74 30" id="Q"/><path fill="#3a414a" d="M25-224v-37h50v37H25zM25 0v-190h50V0H25" id="R"/><path fill="#3a414a" d="M190-63c-7 42-38 67-86 67-59 0-84-38-90-98-12-110 154-137 174-36l-49 2c-2-19-15-32-35-32-30 0-35 28-38 64-6 74 65 87 74 30zm-84 77c20 1 33 9 33 27 0 32-36 36-71 33V53c15 1 39 4 39-11 0-13-16-12-31-12L87 0h25" id="S"/><path fill="#3a414a" d="M132-34C116-15 102 5 68 4 31 3 10-16 10-54c-1-60 55-63 116-61 1-26-3-47-28-47-18 1-26 9-28 27l-52-2c7-38 36-58 82-57s74 22 75 68l1 82c-1 14 12 18 25 15v27c-30 8-71 5-69-32zm-48 3c29 0 43-24 42-57-32 0-66-3-65 30 0 17 8 27 23 27zm82-228c-2 27-9 52-40 51-27-1-66-46-73 0H29c0-29 9-51 39-51 28 0 66 44 74 0h24" id="T"/><path fill="#3a414a" d="M110-194c64 0 96 36 96 99 0 64-35 99-97 99-61 0-95-36-95-99 0-62 34-99 96-99zm-1 164c35 0 45-28 45-65 0-40-10-65-43-65-34 0-45 26-45 65 0 36 10 65 43 65" id="U"/><g id="b"><use transform="matrix(0.06172839506172839,0,0,0.06172839506172839,0,0)" xlink:href="#M"/><use transform="matrix(0.06172839506172839,0,0,0.06172839506172839,14.814814814814813,0)" xlink:href="#N"/><use transform="matrix(0.06172839506172839,0,0,0.06172839506172839,23.456790123456788,0)" xlink:href="#O"/><use transform="matrix(0.06172839506172839,0,0,0.06172839506172839,35.80246913580247,0)" xlink:href="#P"/><use transform="matrix(0.06172839506172839,0,0,0.06172839506172839,48.148148148148145,0)" xlink:href="#Q"/><use transform="matrix(0.06172839506172839,0,0,0.06172839506172839,60.49382716049382,0)" xlink:href="#N"/><use transform="matrix(0.06172839506172839,0,0,0.06172839506172839,69.1358024691358,0)" xlink:href="#R"/><use transform="matrix(0.06172839506172839,0,0,0.06172839506172839,75.30864197530863,0)" xlink:href="#S"/><use transform="matrix(0.06172839506172839,0,0,0.06172839506172839,87.65432098765432,0)" xlink:href="#T"/><use transform="matrix(0.06172839506172839,0,0,0.06172839506172839,100,0)" xlink:href="#U"/></g><path fill="#3a414a" d="M230 0l2-204L168 0h-37L68-204 70 0H24v-248h70l56 185 57-185h69V0h-46" id="V"/><path fill="#3a414a" d="M185-48c-13 30-37 53-82 52C43 2 14-33 14-96s30-98 90-98c62 0 83 45 84 108H66c0 31 8 55 39 56 18 0 30-7 34-22zm-45-69c5-46-57-63-70-21-2 6-4 13-4 21h74zm-67-91v-5l45-51h45v8l-60 48H73" id="W"/><path fill="#3a414a" d="M88-194c31-1 46 15 58 34l-1-101h50l1 261h-48c-2-10 0-23-3-31C134-8 116 4 84 4 32 4 16-41 15-95c0-56 19-97 73-99zm17 164c33 0 40-30 41-66 1-37-9-64-41-64s-38 30-39 65c0 43 13 65 39 65" id="X"/><g id="c"><use transform="matrix(0.06172839506172839,0,0,0.06172839506172839,0,0)" xlink:href="#V"/><use transform="matrix(0.06172839506172839,0,0,0.06172839506172839,18.456790123456788,0)" xlink:href="#W"/><use transform="matrix(0.06172839506172839,0,0,0.06172839506172839,30.80246913580247,0)" xlink:href="#X"/><use transform="matrix(0.06172839506172839,0,0,0.06172839506172839,44.32098765432099,0)" xlink:href="#R"/><use transform="matrix(0.06172839506172839,0,0,0.06172839506172839,50.49382716049383,0)" xlink:href="#Q"/><use transform="matrix(0.06172839506172839,0,0,0.06172839506172839,62.839506172839506,0)" xlink:href="#U"/></g><path fill="#3a414a" d="M133-34C117-15 103 5 69 4 32 3 11-16 11-54c-1-60 55-63 116-61 1-26-3-47-28-47-18 1-26 9-28 27l-52-2c7-38 36-58 82-57s74 22 75 68l1 82c-1 14 12 18 25 15v27c-30 8-71 5-69-32zm-48 3c29 0 43-24 42-57-32 0-66-3-65 30 0 17 8 27 23 27" id="Y"/><path fill="#3a414a" d="M135-194c87-1 58 113 63 194h-50c-7-57 23-157-34-157-59 0-34 97-39 157H25l-1-190h47c2 12-1 28 3 38 12-26 28-41 61-42" id="Z"/><path fill="#3a414a" d="M115-3C79 11 28 4 28-45v-112H4v-33h27l15-45h31v45h36v33H77v99c-1 23 16 31 38 25v30" id="aa"/><g id="d"><use transform="matrix(0.06172839506172839,0,0,0.06172839506172839,0,0)" xlink:href="#M"/><use transform="matrix(0.06172839506172839,0,0,0.06172839506172839,14.814814814814813,0)" xlink:href="#Y"/><use transform="matrix(0.06172839506172839,0,0,0.06172839506172839,27.160493827160494,0)" xlink:href="#Q"/><use transform="matrix(0.06172839506172839,0,0,0.06172839506172839,39.50617283950617,0)" xlink:href="#R"/><use transform="matrix(0.06172839506172839,0,0,0.06172839506172839,45.67901234567901,0)" xlink:href="#O"/><use transform="matrix(0.06172839506172839,0,0,0.06172839506172839,58.02469135802469,0)" xlink:href="#Z"/><use transform="matrix(0.06172839506172839,0,0,0.06172839506172839,71.5432098765432,0)" xlink:href="#aa"/><use transform="matrix(0.06172839506172839,0,0,0.06172839506172839,78.88888888888889,0)" xlink:href="#O"/></g><path fill="#3a414a" d="M76-208v77h127v40H76V0H24v-248h183v40H76" id="ab"/><path fill="#3a414a" d="M132-34C116-15 102 5 68 4 31 3 10-16 10-54c-1-60 55-63 116-61 1-26-3-47-28-47-18 1-26 9-28 27l-52-2c7-38 36-58 82-57s74 22 75 68l1 82c-1 14 12 18 25 15v27c-30 8-71 5-69-32zm-48 3c29 0 43-24 42-57-32 0-66-3-65 30 0 17 8 27 23 27zM66-208v-5l45-51h45v8l-60 48H66" id="ac"/><path fill="#3a414a" d="M220-157c-53 9-28 100-34 157h-49v-107c1-27-5-49-29-50C55-147 81-57 75 0H25l-1-190h47c2 12-1 28 3 38 10-53 101-56 108 0 13-22 24-43 59-42 82 1 51 116 57 194h-49v-107c-1-25-5-48-29-50" id="ad"/><g id="e"><use transform="matrix(0.06172839506172839,0,0,0.06172839506172839,0,0)" xlink:href="#ab"/><use transform="matrix(0.06172839506172839,0,0,0.06172839506172839,13.518518518518517,0)" xlink:href="#ac"/><use transform="matrix(0.06172839506172839,0,0,0.06172839506172839,25.864197530864196,0)" xlink:href="#N"/><use transform="matrix(0.06172839506172839,0,0,0.06172839506172839,34.50617283950617,0)" xlink:href="#ad"/><use transform="matrix(0.06172839506172839,0,0,0.06172839506172839,54.25925925925925,0)" xlink:href="#Y"/><use transform="matrix(0.06172839506172839,0,0,0.06172839506172839,66.60493827160494,0)" xlink:href="#Q"/><use transform="matrix(0.06172839506172839,0,0,0.06172839506172839,78.95061728395062,0)" xlink:href="#U"/></g><path fill="#3a414a" d="M175 0L67-191c6 58 2 128 3 191H24v-248h59L193-55c-6-58-2-129-3-193h46V0h-61" id="ae"/><g id="f"><use transform="matrix(0.06172839506172839,0,0,0.06172839506172839,0,0)" xlink:href="#ae"/><use transform="matrix(0.06172839506172839,0,0,0.06172839506172839,15.987654320987653,0)" xlink:href="#U"/><use transform="matrix(0.06172839506172839,0,0,0.06172839506172839,29.50617283950617,0)" xlink:href="#ad"/><use transform="matrix(0.06172839506172839,0,0,0.06172839506172839,49.25925925925925,0)" xlink:href="#O"/></g><path fill="#3a414a" d="M25 0v-261h50V0H25" id="af"/><g id="g"><use transform="matrix(0.06172839506172839,0,0,0.06172839506172839,0,0)" xlink:href="#Q"/><use transform="matrix(0.06172839506172839,0,0,0.06172839506172839,12.345679012345679,0)" xlink:href="#U"/><use transform="matrix(0.06172839506172839,0,0,0.06172839506172839,25.864197530864196,0)" xlink:href="#ad"/><use transform="matrix(0.06172839506172839,0,0,0.06172839506172839,45.61728395061728,0)" xlink:href="#O"/><use transform="matrix(0.06172839506172839,0,0,0.06172839506172839,57.962962962962955,0)" xlink:href="#N"/><use transform="matrix(0.06172839506172839,0,0,0.06172839506172839,66.60493827160494,0)" xlink:href="#Q"/><use transform="matrix(0.06172839506172839,0,0,0.06172839506172839,78.95061728395062,0)" xlink:href="#R"/><use transform="matrix(0.06172839506172839,0,0,0.06172839506172839,85.12345679012346,0)" xlink:href="#Y"/><use transform="matrix(0.06172839506172839,0,0,0.06172839506172839,97.46913580246914,0)" xlink:href="#af"/></g><path fill="#3a414a" d="M185-48c-13 30-37 53-82 52C43 2 14-33 14-96s30-98 90-98c62 0 83 45 84 108H66c0 31 8 55 39 56 18 0 30-7 34-22zm-45-69c5-46-57-63-70-21-2 6-4 13-4 21h74zm29-96v5h-28c-13-11-23-24-37-34l-37 34H39c9-26 32-39 45-61h41" id="ag"/><path fill="#3a414a" d="M85 4C-2 5 27-109 22-190h50c7 57-23 150 33 157 60-5 35-97 40-157h50l1 190h-47c-2-12 1-28-3-38-12 25-28 42-61 42" id="ah"/><g id="h"><use transform="matrix(0.06172839506172839,0,0,0.06172839506172839,0,0)" xlink:href="#ab"/><use transform="matrix(0.06172839506172839,0,0,0.06172839506172839,13.518518518518517,0)" xlink:href="#Y"/><use transform="matrix(0.06172839506172839,0,0,0.06172839506172839,25.864197530864196,0)" xlink:href="#N"/><use transform="matrix(0.06172839506172839,0,0,0.06172839506172839,34.50617283950617,0)" xlink:href="#ad"/><use transform="matrix(0.06172839506172839,0,0,0.06172839506172839,54.25925925925925,0)" xlink:href="#Y"/><use transform="matrix(0.06172839506172839,0,0,0.06172839506172839,66.60493827160494,0)" xlink:href="#Q"/><use transform="matrix(0.06172839506172839,0,0,0.06172839506172839,78.95061728395062,0)" xlink:href="#ag"/><use transform="matrix(0.06172839506172839,0,0,0.06172839506172839,91.2962962962963,0)" xlink:href="#ah"/><use transform="matrix(0.06172839506172839,0,0,0.06172839506172839,104.81481481481482,0)" xlink:href="#aa"/><use transform="matrix(0.06172839506172839,0,0,0.06172839506172839,112.16049382716051,0)" xlink:href="#R"/><use transform="matrix(0.06172839506172839,0,0,0.06172839506172839,118.33333333333334,0)" xlink:href="#Q"/><use transform="matrix(0.06172839506172839,0,0,0.06172839506172839,130.679012345679,0)" xlink:href="#Y"/></g><g id="i"><use transform="matrix(0.06172839506172839,0,0,0.06172839506172839,0,0)" xlink:href="#ab"/><use transform="matrix(0.06172839506172839,0,0,0.06172839506172839,13.518518518518517,0)" xlink:href="#Y"/><use transform="matrix(0.06172839506172839,0,0,0.06172839506172839,25.864197530864196,0)" xlink:href="#N"/><use transform="matrix(0.06172839506172839,0,0,0.06172839506172839,34.50617283950617,0)" xlink:href="#ad"/><use transform="matrix(0.06172839506172839,0,0,0.06172839506172839,54.25925925925925,0)" xlink:href="#ac"/><use transform="matrix(0.06172839506172839,0,0,0.06172839506172839,66.60493827160494,0)" xlink:href="#Q"/><use transform="matrix(0.06172839506172839,0,0,0.06172839506172839,78.95061728395062,0)" xlink:href="#R"/><use transform="matrix(0.06172839506172839,0,0,0.06172839506172839,85.12345679012346,0)" xlink:href="#Y"/></g><path fill="#3a414a" d="M190 0L58-211 59 0H30v-248h39L202-35l-2-213h31V0h-41" id="ai"/><path fill="#3a414a" d="M85 4C-4 8 31-112 24-190h32v120c0 31 7 50 39 49 72-2 45-101 50-169h31l1 190h-30c-1-10 1-25-2-33-11 22-28 36-60 37zM73-211c8-23 27-35 38-54h36v5l-58 49H73" id="aj"/><path fill="#3a414a" d="M210-169c-67 3-38 105-44 169h-31v-121c0-29-5-50-35-48C34-165 62-65 56 0H25l-1-190h30c1 10-1 24 2 32 10-44 99-50 107 0 11-21 27-35 58-36 85-2 47 119 55 194h-31v-121c0-29-5-49-35-48" id="ak"/><path fill="#3a414a" d="M100-194c63 0 86 42 84 106H49c0 40 14 67 53 68 26 1 43-12 49-29l28 8c-11 28-37 45-77 45C44 4 14-33 15-96c1-61 26-98 85-98zm52 81c6-60-76-77-97-28-3 7-6 17-6 28h103" id="al"/><path fill="#3a414a" d="M114-163C36-179 61-72 57 0H25l-1-190h30c1 12-1 29 2 39 6-27 23-49 58-41v29" id="am"/><path fill="#3a414a" d="M100-194c62-1 85 37 85 99 1 63-27 99-86 99S16-35 15-95c0-66 28-99 85-99zM99-20c44 1 53-31 53-75 0-43-8-75-51-75s-53 32-53 75 10 74 51 75" id="an"/><g id="j"><use transform="matrix(0.06172839506172839,0,0,0.06172839506172839,0,0)" xlink:href="#ai"/><use transform="matrix(0.06172839506172839,0,0,0.06172839506172839,15.987654320987653,0)" xlink:href="#aj"/><use transform="matrix(0.06172839506172839,0,0,0.06172839506172839,28.333333333333332,0)" xlink:href="#ak"/><use transform="matrix(0.06172839506172839,0,0,0.06172839506172839,46.79012345679012,0)" xlink:href="#al"/><use transform="matrix(0.06172839506172839,0,0,0.06172839506172839,59.1358024691358,0)" xlink:href="#am"/><use transform="matrix(0.06172839506172839,0,0,0.06172839506172839,66.48148148148148,0)" xlink:href="#an"/><path fill="#3a414a" d="M-1.1 1.54h81.04v1.63H-1.1z"/></g><g id="k"><use transform="matrix(0.06172839506172839,0,0,0.06172839506172839,0,0)" xlink:href="#ai"/><use transform="matrix(0.06172839506172839,0,0,0.06172839506172839,15.987654320987653,0)" xlink:href="#an"/><use transform="matrix(0.06172839506172839,0,0,0.06172839506172839,28.333333333333332,0)" xlink:href="#ak"/><use transform="matrix(0.06172839506172839,0,0,0.06172839506172839,46.79012345679012,0)" xlink:href="#al"/></g><path fill="#3a414a" d="M30 0v-248h187v28H63v79h144v27H63v87h162V0H30" id="ao"/><path fill="#3a414a" d="M135-143c-3-34-86-38-87 0 15 53 115 12 119 90S17 21 10-45l28-5c4 36 97 45 98 0-10-56-113-15-118-90-4-57 82-63 122-42 12 7 21 19 24 35" id="ap"/><path fill="#3a414a" d="M115-194c55 1 70 41 70 98S169 2 115 4C84 4 66-9 55-30l1 105H24l-1-265h31l2 30c10-21 28-34 59-34zm-8 174c40 0 45-34 45-75s-6-73-45-74c-42 0-51 32-51 76 0 43 10 73 51 73" id="aq"/><path fill="#3a414a" d="M96-169c-40 0-48 33-48 73s9 75 48 75c24 0 41-14 43-38l32 2c-6 37-31 61-74 61-59 0-76-41-82-99-10-93 101-131 147-64 4 7 5 14 7 22l-32 3c-4-21-16-35-41-35" id="ar"/><path fill="#3a414a" d="M24-231v-30h32v30H24zM24 0v-190h32V0H24" id="as"/><path fill="#3a414a" d="M141-36C126-15 110 5 73 4 37 3 15-17 15-53c-1-64 63-63 125-63 3-35-9-54-41-54-24 1-41 7-42 31l-33-3c5-37 33-52 76-52 45 0 72 20 72 64v82c-1 20 7 32 28 27v20c-31 9-61-2-59-35zM48-53c0 20 12 33 32 33 41-3 63-29 60-74-43 2-92-5-92 41" id="at"/><path fill="#3a414a" d="M24 0v-261h32V0H24" id="au"/><path fill="#3a414a" d="M85-194c31 0 48 13 60 33l-1-100h32l1 261h-30c-2-10 0-23-3-31C134-8 116 4 85 4 32 4 16-35 15-94c0-66 23-100 70-100zm9 24c-40 0-46 34-46 75 0 40 6 74 45 74 42 0 51-32 51-76 0-42-9-74-50-73" id="av"/><g id="l"><use transform="matrix(0.06172839506172839,0,0,0.06172839506172839,0,0)" xlink:href="#ao"/><use transform="matrix(0.06172839506172839,0,0,0.06172839506172839,14.814814814814813,0)" xlink:href="#ap"/><use transform="matrix(0.06172839506172839,0,0,0.06172839506172839,25.925925925925924,0)" xlink:href="#aq"/><use transform="matrix(0.06172839506172839,0,0,0.06172839506172839,38.2716049382716,0)" xlink:href="#al"/><use transform="matrix(0.06172839506172839,0,0,0.06172839506172839,50.61728395061728,0)" xlink:href="#ar"/><use transform="matrix(0.06172839506172839,0,0,0.06172839506172839,61.72839506172839,0)" xlink:href="#as"/><use transform="matrix(0.06172839506172839,0,0,0.06172839506172839,66.60493827160494,0)" xlink:href="#at"/><use transform="matrix(0.06172839506172839,0,0,0.06172839506172839,78.95061728395062,0)" xlink:href="#au"/><use transform="matrix(0.06172839506172839,0,0,0.06172839506172839,83.82716049382717,0)" xlink:href="#as"/><use transform="matrix(0.06172839506172839,0,0,0.06172839506172839,88.70370370370371,0)" xlink:href="#av"/><use transform="matrix(0.06172839506172839,0,0,0.06172839506172839,101.0493827160494,0)" xlink:href="#at"/><use transform="matrix(0.06172839506172839,0,0,0.06172839506172839,113.39506172839508,0)" xlink:href="#av"/><use transform="matrix(0.06172839506172839,0,0,0.06172839506172839,125.74074074074076,0)" xlink:href="#al"/></g><path fill="#3a414a" d="M30-248c118-7 216 8 213 122C240-48 200 0 122 0H30v-248zM63-27c89 8 146-16 146-99s-60-101-146-95v194" id="aw"/><path fill="#3a414a" d="M59-47c-2 24 18 29 38 22v24C64 9 27 4 27-40v-127H5v-23h24l9-43h21v43h35v23H59v120" id="ax"/><g id="m"><use transform="matrix(0.06172839506172839,0,0,0.06172839506172839,0,0)" xlink:href="#aw"/><use transform="matrix(0.06172839506172839,0,0,0.06172839506172839,15.987654320987653,0)" xlink:href="#at"/><use transform="matrix(0.06172839506172839,0,0,0.06172839506172839,28.333333333333332,0)" xlink:href="#ax"/><use transform="matrix(0.06172839506172839,0,0,0.06172839506172839,34.50617283950617,0)" xlink:href="#at"/></g><path fill="#3a414a" d="M96-169c-40 0-48 33-48 73s9 75 48 75c24 0 41-14 43-38l32 2c-6 37-31 61-74 61-59 0-76-41-82-99-10-93 101-131 147-64 4 7 5 14 7 22l-32 3c-4-21-16-35-41-35zm3 187c19-1 33 8 33 26 0 31-30 33-64 32V58c18 2 39 4 41-13 1-15-18-13-34-13L87 0h19" id="ay"/><path fill="#3a414a" d="M141-36C126-15 110 5 73 4 37 3 15-17 15-53c-1-64 63-63 125-63 3-35-9-54-41-54-24 1-41 7-42 31l-33-3c5-37 33-52 76-52 45 0 72 20 72 64v82c-1 20 7 32 28 27v20c-31 9-61-2-59-35zM48-53c0 20 12 33 32 33 41-3 63-29 60-74-43 2-92-5-92 41zm117-205c-3 23-9 48-36 47-26-1-65-44-74 0H39c4-23 8-48 36-47s64 44 74 0h16" id="az"/><g id="n"><use transform="matrix(0.06172839506172839,0,0,0.06172839506172839,0,0)" xlink:href="#ar"/><use transform="matrix(0.06172839506172839,0,0,0.06172839506172839,11.11111111111111,0)" xlink:href="#am"/><use transform="matrix(0.06172839506172839,0,0,0.06172839506172839,18.45679012345679,0)" xlink:href="#as"/><use transform="matrix(0.06172839506172839,0,0,0.06172839506172839,23.333333333333336,0)" xlink:href="#at"/><use transform="matrix(0.06172839506172839,0,0,0.06172839506172839,35.67901234567901,0)" xlink:href="#ay"/><use transform="matrix(0.06172839506172839,0,0,0.06172839506172839,46.79012345679013,0)" xlink:href="#az"/><use transform="matrix(0.06172839506172839,0,0,0.06172839506172839,59.135802469135804,0)" xlink:href="#an"/></g><g id="o"><use transform="matrix(0.06172839506172839,0,0,0.06172839506172839,0,0)" xlink:href="#aw"/><use transform="matrix(0.06172839506172839,0,0,0.06172839506172839,15.987654320987653,0)" xlink:href="#at"/><use transform="matrix(0.06172839506172839,0,0,0.06172839506172839,28.333333333333332,0)" xlink:href="#ax"/><use transform="matrix(0.06172839506172839,0,0,0.06172839506172839,34.50617283950617,0)" xlink:href="#at"/></g><path fill="#3a414a" d="M108 0H70L1-190h34L89-25l56-165h34" id="aA"/><path fill="#3a414a" d="M117-194c89-4 53 116 60 194h-32v-121c0-31-8-49-39-48C34-167 62-67 57 0H25l-1-190h30c1 10-1 24 2 32 11-22 29-35 61-36" id="aB"/><g id="p"><use transform="matrix(0.06172839506172839,0,0,0.06172839506172839,0,0)" xlink:href="#at"/><use transform="matrix(0.06172839506172839,0,0,0.06172839506172839,12.345679012345679,0)" xlink:href="#aA"/><use transform="matrix(0.06172839506172839,0,0,0.06172839506172839,23.45679012345679,0)" xlink:href="#as"/><use transform="matrix(0.06172839506172839,0,0,0.06172839506172839,28.333333333333336,0)" xlink:href="#at"/><use transform="matrix(0.06172839506172839,0,0,0.06172839506172839,40.67901234567901,0)" xlink:href="#ak"/><use transform="matrix(0.06172839506172839,0,0,0.06172839506172839,59.1358024691358,0)" xlink:href="#al"/><use transform="matrix(0.06172839506172839,0,0,0.06172839506172839,71.48148148148148,0)" xlink:href="#aB"/><use transform="matrix(0.06172839506172839,0,0,0.06172839506172839,83.82716049382717,0)" xlink:href="#ax"/><use transform="matrix(0.06172839506172839,0,0,0.06172839506172839,90,0)" xlink:href="#an"/></g><g id="q"><use transform="matrix(0.06172839506172839,0,0,0.06172839506172839,0,0)" xlink:href="#ai"/><use transform="matrix(0.06172839506172839,0,0,0.06172839506172839,15.987654320987653,0)" xlink:href="#aj"/><use transform="matrix(0.06172839506172839,0,0,0.06172839506172839,28.333333333333332,0)" xlink:href="#ak"/><use transform="matrix(0.06172839506172839,0,0,0.06172839506172839,46.79012345679012,0)" xlink:href="#al"/><use transform="matrix(0.06172839506172839,0,0,0.06172839506172839,59.1358024691358,0)" xlink:href="#am"/><use transform="matrix(0.06172839506172839,0,0,0.06172839506172839,66.48148148148148,0)" xlink:href="#an"/><path fill="#3a414a" d="M-1.1 1.54h81.04v1.63H-1.1z"/></g><path fill="#3a414a" d="M84 4C-5 8 30-112 23-190h32v120c0 31 7 50 39 49 72-2 45-101 50-169h31l1 190h-30c-1-10 1-25-2-33-11 22-28 36-60 37" id="aC"/><g id="r"><use transform="matrix(0.06172839506172839,0,0,0.06172839506172839,0,0)" xlink:href="#aC"/><use transform="matrix(0.06172839506172839,0,0,0.06172839506172839,12.345679012345679,0)" xlink:href="#ax"/><use transform="matrix(0.06172839506172839,0,0,0.06172839506172839,18.51851851851852,0)" xlink:href="#al"/><use transform="matrix(0.06172839506172839,0,0,0.06172839506172839,30.864197530864196,0)" xlink:href="#aB"/><use transform="matrix(0.06172839506172839,0,0,0.06172839506172839,43.20987654320987,0)" xlink:href="#ax"/><use transform="matrix(0.06172839506172839,0,0,0.06172839506172839,49.382716049382715,0)" xlink:href="#al"/><path fill="#3a414a" d="M-1.1 1.54h63.94v1.63H-1.1z"/></g><g id="s"><use transform="matrix(0.06172839506172839,0,0,0.06172839506172839,0,0)" xlink:href="#ai"/><use transform="matrix(0.06172839506172839,0,0,0.06172839506172839,15.987654320987653,0)" xlink:href="#an"/><use transform="matrix(0.06172839506172839,0,0,0.06172839506172839,28.333333333333332,0)" xlink:href="#ak"/><use transform="matrix(0.06172839506172839,0,0,0.06172839506172839,46.79012345679012,0)" xlink:href="#al"/></g><g id="t"><use transform="matrix(0.06172839506172839,0,0,0.06172839506172839,0,0)" xlink:href="#aB"/><use transform="matrix(0.06172839506172839,0,0,0.06172839506172839,12.345679012345679,0)" xlink:href="#at"/><use transform="matrix(0.06172839506172839,0,0,0.06172839506172839,24.691358024691358,0)" xlink:href="#ap"/><use transform="matrix(0.06172839506172839,0,0,0.06172839506172839,35.80246913580247,0)" xlink:href="#ar"/><use transform="matrix(0.06172839506172839,0,0,0.06172839506172839,46.91358024691358,0)" xlink:href="#as"/><use transform="matrix(0.06172839506172839,0,0,0.06172839506172839,51.79012345679013,0)" xlink:href="#ak"/><use transform="matrix(0.06172839506172839,0,0,0.06172839506172839,70.24691358024691,0)" xlink:href="#al"/><use transform="matrix(0.06172839506172839,0,0,0.06172839506172839,82.5925925925926,0)" xlink:href="#aB"/><use transform="matrix(0.06172839506172839,0,0,0.06172839506172839,94.93827160493828,0)" xlink:href="#ax"/><use transform="matrix(0.06172839506172839,0,0,0.06172839506172839,101.11111111111111,0)" xlink:href="#an"/></g><g id="u"><use transform="matrix(0.06172839506172839,0,0,0.06172839506172839,0,0)" xlink:href="#ao"/><use transform="matrix(0.06172839506172839,0,0,0.06172839506172839,14.814814814814813,0)" xlink:href="#aB"/><use transform="matrix(0.06172839506172839,0,0,0.06172839506172839,27.160493827160494,0)" xlink:href="#av"/><use transform="matrix(0.06172839506172839,0,0,0.06172839506172839,39.50617283950617,0)" xlink:href="#al"/><use transform="matrix(0.06172839506172839,0,0,0.06172839506172839,51.85185185185185,0)" xlink:href="#am"/><use transform="matrix(0.06172839506172839,0,0,0.06172839506172839,59.197530864197525,0)" xlink:href="#al"/><use transform="matrix(0.06172839506172839,0,0,0.06172839506172839,71.5432098765432,0)" xlink:href="#ay"/><use transform="matrix(0.06172839506172839,0,0,0.06172839506172839,82.65432098765432,0)" xlink:href="#an"/></g><path fill="#3a414a" d="M63-220v92h138v28H63V0H30v-248h175v28H63" id="aD"/><path fill="#3a414a" d="M100-194c62-1 85 37 85 99 1 63-27 99-86 99S16-35 15-95c0-66 28-99 85-99zM99-20c44 1 53-31 53-75 0-43-8-75-51-75s-53 32-53 75 10 74 51 75zM76-211c8-23 27-35 38-54h36v5l-58 49H76" id="aE"/><g id="v"><use transform="matrix(0.06172839506172839,0,0,0.06172839506172839,0,0)" xlink:href="#aD"/><use transform="matrix(0.06172839506172839,0,0,0.06172839506172839,13.518518518518517,0)" xlink:href="#aE"/><use transform="matrix(0.06172839506172839,0,0,0.06172839506172839,25.864197530864196,0)" xlink:href="#am"/><use transform="matrix(0.06172839506172839,0,0,0.06172839506172839,33.20987654320987,0)" xlink:href="#ak"/><use transform="matrix(0.06172839506172839,0,0,0.06172839506172839,51.66666666666666,0)" xlink:href="#aC"/><use transform="matrix(0.06172839506172839,0,0,0.06172839506172839,64.01234567901234,0)" xlink:href="#au"/><use transform="matrix(0.06172839506172839,0,0,0.06172839506172839,68.88888888888889,0)" xlink:href="#at"/></g><path fill="#3a414a" d="M177-190C167-65 218 103 67 71c-23-6-38-20-44-43l32-5c15 47 100 32 89-28v-30C133-14 115 1 83 1 29 1 15-40 15-95c0-56 16-97 71-98 29-1 48 16 59 35 1-10 0-23 2-32h30zM94-22c36 0 50-32 50-73 0-42-14-75-50-75-39 0-46 34-46 75s6 73 46 73" id="aF"/><g id="w"><use transform="matrix(0.06172839506172839,0,0,0.06172839506172839,0,0)" xlink:href="#am"/><use transform="matrix(0.06172839506172839,0,0,0.06172839506172839,7.345679012345679,0)" xlink:href="#al"/><use transform="matrix(0.06172839506172839,0,0,0.06172839506172839,19.691358024691358,0)" xlink:href="#aF"/><use transform="matrix(0.06172839506172839,0,0,0.06172839506172839,32.03703703703704,0)" xlink:href="#as"/><use transform="matrix(0.06172839506172839,0,0,0.06172839506172839,36.91358024691358,0)" xlink:href="#ap"/><use transform="matrix(0.06172839506172839,0,0,0.06172839506172839,48.0246913580247,0)" xlink:href="#ax"/><use transform="matrix(0.06172839506172839,0,0,0.06172839506172839,54.19753086419754,0)" xlink:href="#an"/><path fill="#3a414a" d="M-1.1 1.54h68.76v1.63H-1.1z"/></g><path fill="#3a414a" d="M127-220V0H93v-220H8v-28h204v28h-85" id="aG"/><path fill="#3a414a" d="M101-234c-31-9-42 10-38 44h38v23H63V0H32v-167H5v-23h27c-7-52 17-82 69-68v24" id="aH"/><g id="x"><use transform="matrix(0.06172839506172839,0,0,0.06172839506172839,0,0)" xlink:href="#aG"/><use transform="matrix(0.06172839506172839,0,0,0.06172839506172839,11.049382716049381,0)" xlink:href="#al"/><use transform="matrix(0.06172839506172839,0,0,0.06172839506172839,23.39506172839506,0)" xlink:href="#au"/><use transform="matrix(0.06172839506172839,0,0,0.06172839506172839,28.2716049382716,0)" xlink:href="#al"/><use transform="matrix(0.06172839506172839,0,0,0.06172839506172839,40.61728395061728,0)" xlink:href="#aH"/><use transform="matrix(0.06172839506172839,0,0,0.06172839506172839,46.79012345679012,0)" xlink:href="#an"/><use transform="matrix(0.06172839506172839,0,0,0.06172839506172839,59.1358024691358,0)" xlink:href="#aB"/><use transform="matrix(0.06172839506172839,0,0,0.06172839506172839,71.48148148148148,0)" xlink:href="#al"/></g><path fill="#3a414a" d="M33 0v-248h34V0H33" id="aI"/><g id="y"><use transform="matrix(0.06172839506172839,0,0,0.06172839506172839,0,0)" xlink:href="#ai"/><use transform="matrix(0.06172839506172839,0,0,0.06172839506172839,15.987654320987653,0)" xlink:href="#aI"/><use transform="matrix(0.06172839506172839,0,0,0.06172839506172839,22.160493827160494,0)" xlink:href="#aD"/><path fill="#3a414a" d="M-1.1 1.54h37.9v1.63H-1.1z"/></g><g id="z"><use transform="matrix(0.06172839506172839,0,0,0.06172839506172839,0,0)" xlink:href="#al"/><use transform="matrix(0.06172839506172839,0,0,0.06172839506172839,12.345679012345679,0)" xlink:href="#aH"/><use transform="matrix(0.06172839506172839,0,0,0.06172839506172839,18.51851851851852,0)" xlink:href="#al"/><use transform="matrix(0.06172839506172839,0,0,0.06172839506172839,30.864197530864196,0)" xlink:href="#ax"/><use transform="matrix(0.06172839506172839,0,0,0.06172839506172839,37.03703703703704,0)" xlink:href="#aC"/><use transform="matrix(0.06172839506172839,0,0,0.06172839506172839,49.382716049382715,0)" xlink:href="#at"/></g><path fill="#3a414a" d="M115-194c53 0 69 39 70 98 0 66-23 100-70 100C84 3 66-7 56-30L54 0H23l1-261h32v101c10-23 28-34 59-34zm-8 174c40 0 45-34 45-75 0-40-5-75-45-74-42 0-51 32-51 76 0 43 10 73 51 73" id="aJ"/><path fill="#3a414a" d="M34 0v-190h32V0H34zM24-211c8-23 27-35 38-54h36v5l-58 49H24" id="aK"/><g id="A"><use transform="matrix(0.049382716049382706,0,0,0.049382716049382706,0,0)" xlink:href="#at"/><use transform="matrix(0.049382716049382706,0,0,0.049382716049382706,9.87654320987654,0)" xlink:href="#ax"/><use transform="matrix(0.049382716049382706,0,0,0.049382716049382706,14.814814814814811,0)" xlink:href="#am"/><use transform="matrix(0.049382716049382706,0,0,0.049382716049382706,20.691358024691354,0)" xlink:href="#as"/><use transform="matrix(0.049382716049382706,0,0,0.049382716049382706,24.592592592592588,0)" xlink:href="#aJ"/><use transform="matrix(0.049382716049382706,0,0,0.049382716049382706,34.469135802469125,0)" xlink:href="#aC"/><use transform="matrix(0.049382716049382706,0,0,0.049382716049382706,44.34567901234567,0)" xlink:href="#aK"/><use transform="matrix(0.049382716049382706,0,0,0.049382716049382706,49.28395061728394,0)" xlink:href="#av"/><use transform="matrix(0.049382716049382706,0,0,0.049382716049382706,59.16049382716048,0)" xlink:href="#at"/></g><path fill="#3a414a" d="M100-194c63 0 86 42 84 106H49c0 40 14 67 53 68 26 1 43-12 49-29l28 8c-11 28-37 45-77 45C44 4 14-33 15-96c1-61 26-98 85-98zm52 81c6-60-76-77-97-28-3 7-6 17-6 28h103zm-74-98c8-23 27-35 38-54h36v5l-58 49H78" id="aL"/><g id="B"><use transform="matrix(0.055555555555555546,0,0,0.055555555555555546,0,0)" xlink:href="#ar"/><use transform="matrix(0.055555555555555546,0,0,0.055555555555555546,9.999999999999998,0)" xlink:href="#an"/><use transform="matrix(0.055555555555555546,0,0,0.055555555555555546,21.111111111111107,0)" xlink:href="#aB"/><use transform="matrix(0.055555555555555546,0,0,0.055555555555555546,32.222222222222214,0)" xlink:href="#ax"/><use transform="matrix(0.055555555555555546,0,0,0.055555555555555546,37.77777777777777,0)" xlink:href="#aL"/><use transform="matrix(0.055555555555555546,0,0,0.055555555555555546,48.88888888888888,0)" xlink:href="#ak"/></g><use transform="matrix(0.06172839506172839,0,0,0.06172839506172839,0,0)" xlink:href="#ai" id="C"/><path fill="#3a414a" d="M240 0l2-218c-23 76-54 145-80 218h-23L58-218 59 0H30v-248h44l77 211c21-75 51-140 76-211h43V0h-30" id="aM"/><use transform="matrix(0.06172839506172839,0,0,0.06172839506172839,0,0)" xlink:href="#aM" id="D"/><g id="E"><use transform="matrix(0.055555555555555546,0,0,0.055555555555555546,0,0)" xlink:href="#aq"/><use transform="matrix(0.055555555555555546,0,0,0.055555555555555546,11.111111111111109,0)" xlink:href="#an"/><use transform="matrix(0.055555555555555546,0,0,0.055555555555555546,22.222222222222218,0)" xlink:href="#ap"/><use transform="matrix(0.055555555555555546,0,0,0.055555555555555546,32.222222222222214,0)" xlink:href="#ap"/><use transform="matrix(0.055555555555555546,0,0,0.055555555555555546,42.222222222222214,0)" xlink:href="#aC"/><use transform="matrix(0.055555555555555546,0,0,0.055555555555555546,53.33333333333332,0)" xlink:href="#as"/></g><path fill="#3a414a" d="M9 0v-24l116-142H16v-24h144v24L44-24h123V0H9" id="aN"/><g id="F"><use transform="matrix(0.04320987654320987,0,0,0.04320987654320987,0,0)" xlink:href="#aq"/><use transform="matrix(0.04320987654320987,0,0,0.04320987654320987,8.641975308641973,0)" xlink:href="#am"/><use transform="matrix(0.04320987654320987,0,0,0.04320987654320987,13.783950617283947,0)" xlink:href="#an"/><use transform="matrix(0.04320987654320987,0,0,0.04320987654320987,22.42592592592592,0)" xlink:href="#av"/><use transform="matrix(0.04320987654320987,0,0,0.04320987654320987,31.06790123456789,0)" xlink:href="#aC"/><use transform="matrix(0.04320987654320987,0,0,0.04320987654320987,39.709876543209866,0)" xlink:href="#aN"/><use transform="matrix(0.04320987654320987,0,0,0.04320987654320987,47.487654320987644,0)" xlink:href="#as"/><use transform="matrix(0.04320987654320987,0,0,0.04320987654320987,50.90123456790123,0)" xlink:href="#av"/><use transform="matrix(0.04320987654320987,0,0,0.04320987654320987,59.543209876543195,0)" xlink:href="#an"/></g><g id="G"><use transform="matrix(0.04320987654320987,0,0,0.04320987654320987,0,0)" xlink:href="#aq"/><use transform="matrix(0.04320987654320987,0,0,0.04320987654320987,8.641975308641973,0)" xlink:href="#an"/><use transform="matrix(0.04320987654320987,0,0,0.04320987654320987,17.283950617283946,0)" xlink:href="#am"/></g><g id="H"><use transform="matrix(0.03703703703703702,0,0,0.03703703703703702,0,0)" xlink:href="#aq"/><use transform="matrix(0.03703703703703702,0,0,0.03703703703703702,7.407407407407404,0)" xlink:href="#am"/><use transform="matrix(0.03703703703703702,0,0,0.03703703703703702,11.81481481481481,0)" xlink:href="#an"/><use transform="matrix(0.03703703703703702,0,0,0.03703703703703702,19.222222222222214,0)" xlink:href="#ar"/><use transform="matrix(0.03703703703703702,0,0,0.03703703703703702,25.88888888888888,0)" xlink:href="#al"/><use transform="matrix(0.03703703703703702,0,0,0.03703703703703702,33.29629629629628,0)" xlink:href="#ap"/><use transform="matrix(0.03703703703703702,0,0,0.03703703703703702,39.96296296296295,0)" xlink:href="#ap"/><use transform="matrix(0.03703703703703702,0,0,0.03703703703703702,46.62962962962961,0)" xlink:href="#at"/><use transform="matrix(0.03703703703703702,0,0,0.03703703703703702,54.03703703703702,0)" xlink:href="#av"/><use transform="matrix(0.03703703703703702,0,0,0.03703703703703702,61.44444444444442,0)" xlink:href="#at"/></g><g id="I"><use transform="matrix(0.03703703703703702,0,0,0.03703703703703702,0,0)" xlink:href="#aB"/><use transform="matrix(0.03703703703703702,0,0,0.03703703703703702,7.407407407407404,0)" xlink:href="#aC"/><use transform="matrix(0.03703703703703702,0,0,0.03703703703703702,14.814814814814808,0)" xlink:href="#ak"/><use transform="matrix(0.03703703703703702,0,0,0.03703703703703702,25.88888888888888,0)" xlink:href="#at"/></g><g id="J"><use transform="matrix(0.04320987654320985,0,0,0.04320987654320985,0,0)" xlink:href="#aA"/><use transform="matrix(0.04320987654320985,0,0,0.04320987654320985,7.777777777777773,0)" xlink:href="#al"/><use transform="matrix(0.04320987654320985,0,0,0.04320987654320985,16.419753086419746,0)" xlink:href="#aB"/><use transform="matrix(0.04320987654320985,0,0,0.04320987654320985,25.061728395061714,0)" xlink:href="#av"/><use transform="matrix(0.04320987654320985,0,0,0.04320987654320985,33.70370370370369,0)" xlink:href="#as"/><use transform="matrix(0.04320987654320985,0,0,0.04320987654320985,37.117283950617264,0)" xlink:href="#av"/><use transform="matrix(0.04320987654320985,0,0,0.04320987654320985,45.75925925925924,0)" xlink:href="#an"/></g><g id="K"><use transform="matrix(0.04320987654320985,0,0,0.04320987654320985,0,0)" xlink:href="#aB"/><use transform="matrix(0.04320987654320985,0,0,0.04320987654320985,8.641975308641971,0)" xlink:href="#aC"/><use transform="matrix(0.04320987654320985,0,0,0.04320987654320985,17.283950617283942,0)" xlink:href="#ak"/><use transform="matrix(0.04320987654320985,0,0,0.04320987654320985,30.203703703703688,0)" xlink:href="#at"/></g></defs></g></svg>