<svg xmlns="http://www.w3.org/2000/svg" xmlns:xlink="http://www.w3.org/1999/xlink" xmlns:lucid="lucid" width="1634.49" height="1175.1"><g transform="translate(-11.496062992125982 2476.6929133858266)" lucid:page-tab-id="0_0"><path d="M0-2517.67h1870.87v1322.84H0z" fill="#fff"/><path d="M1453.88-1948.7a6.42 6.42 0 0 1 8.77 0l44.78 41.8a5.6 5.6 0 0 1 0 8.2l-44.78 41.8a6.42 6.42 0 0 1-8.77 0l-44.77-41.8a5.6 5.6 0 0 1 0-8.2zM418-2331a6 6 0 0 1 6-6h188a6 6 0 0 1 6 6v88a6 6 0 0 1-6 6H424a6 6 0 0 1-6-6z" stroke="#3a414a" fill="#edf5ff"/><use xlink:href="#a" transform="matrix(1,0,0,1,429.99212598425197,-2325.007874015748) translate(23.956790123456784 41.52777777777778)"/><path d="M1358.27-2331a6 6 0 0 1 6-6h188a6 6 0 0 1 6 6v88a6 6 0 0 1-6 6h-188a6 6 0 0 1-6-6zM1090.55-1946.8a6 6 0 0 1 6-6h188a6 6 0 0 1 6 6v88a6 6 0 0 1-6 6h-188a6 6 0 0 1-6-6zM844.88-1557a6 6 0 0 1 6-6h188a6 6 0 0 1 6 6v88a6 6 0 0 1-6 6h-188a6 6 0 0 1-6-6z" stroke="#3a414a" fill="#edf5ff"/><use xlink:href="#b" transform="matrix(1,0,0,1,856.8818897637793,-1550.9921259842517) translate(32.598765432098766 41.52777777777778)"/><path d="M618-1947.3a6 6 0 0 1 6-6h188a6 6 0 0 1 6 6v88a6 6 0 0 1-6 6H624a6 6 0 0 1-6-6z" stroke="#3a414a" fill="#edf5ff"/><use xlink:href="#c" transform="matrix(1,0,0,1,629.992125984252,-1941.296485830595) translate(24.5432098765432 41.52777777777778)"/><path d="M283.46-1557a6 6 0 0 1 6-6h188a6 6 0 0 1 6 6v88a6 6 0 0 1-6 6h-188a6 6 0 0 1-6-6z" stroke="#3a414a" fill="#edf5ff"/><use xlink:href="#d" transform="matrix(1,0,0,1,295.4645669291338,-1550.9921259842517) translate(34.45061728395061 41.52777777777778)"/><path d="M283.46-1423.92a6 6 0 0 1 6-6h188a6 6 0 0 1 6 6v88a6 6 0 0 1-6 6h-188a6 6 0 0 1-6-6z" stroke="#3a414a" fill="#edf5ff"/><use xlink:href="#e" transform="matrix(1,0,0,1,295.4645669291338,-1417.9212598425195) translate(11.672839506172835 41.52777777777778)"/><use xlink:href="#f" transform="matrix(1,0,0,1,295.4645669291338,-1417.9212598425195) translate(59.697530864197525 41.52777777777778)"/><path d="M484.46-1513H694.2" stroke="#3a414a" fill="none"/><path d="M484.48-1512.5h-.52v-1h.52zM694.32-1512.5h-.14v-1h.88z" stroke="#3a414a" stroke-width=".05" fill="#3a414a"/><path d="M484.46-1379.92h227.36a6 6 0 0 0 6-6v-95.64" stroke="#3a414a" fill="none"/><path d="M484.48-1379.42h-.52v-1h.52zM718.32-1482.06v.5h-1v-.5z" stroke="#3a414a" stroke-width=".05" fill="#3a414a"/><path d="M832.82-2179.83a6 6 0 0 1 6-6h188a6 6 0 0 1 6 6v88a6 6 0 0 1-6 6h-188a6 6 0 0 1-6-6z" stroke="#3a414a" fill="#edf5ff"/><use xlink:href="#g" transform="matrix(1,0,0,1,844.8149565072108,-2173.826771653543) translate(49.141975308641975 41.52777777777778)"/><path d="M1099.2-1937.74a6 6 0 0 1 6-6h170.7a6 6 0 0 1 6 6v69.9a6 6 0 0 1-6 6h-170.7a6 6 0 0 1-6-6z" stroke="#3a414a" fill="#edf5ff"/><use xlink:href="#h" transform="matrix(1,0,0,1,1111.212598425197,-1931.7414818593054) translate(49.99382716049383 32.27777777777778)"/><path d="M891.76-2003.8a3.02 3.02 0 0 0 2.43 4.8h78a3.02 3.02 0 0 0 2.42-4.8l-37.86-51.22a4.44 4.44 0 0 0-7.14 0z" stroke="#3a414a" fill="#edf5ff"/><use xlink:href="#i" transform="matrix(1,0,0,1,893.1889763779527,-2054.8425196850394) translate(22.165493827160493 35.78777777777778)"/><path d="M936.27-2056.7v-28.13" stroke="#3a414a" fill="none"/><path d="M936.77-2055.75l-.22-.25-.74-.56-.02-.02v-.14h1zM936.77-2084.8h-1v-.53h1z" stroke="#3a414a" stroke-width=".05" fill="#3a414a"/><path d="M1190.55-1953.8v-9.06a6 6 0 0 0-6-6H953.38a6 6 0 0 1-6-6V-1998" stroke="#3a414a" fill="none"/><path d="M1191.05-1953.3h-1v-.5h1zM947.88-1998.5v.53h-1v-.52z" stroke="#3a414a" stroke-width=".05" fill="#3a414a"/><path d="M723.8-1954.3v-9.06a6 6 0 0 1 6-6H913.5a6 6 0 0 0 6-6V-1998" stroke="#3a414a" fill="none"/><path d="M724.3-1953.8h-1v-.5h1zM919.98-1998.5v.53h-1v-.52z" stroke="#3a414a" stroke-width=".05" fill="#3a414a"/><path d="M722.04-1852.3v268.8a.1.1 0 0 1-.1.08.1.1 0 0 0-.08.08v45.16" stroke="#3a414a" fill="none"/><path d="M722.54-1852.28h-1v-.52h1z" stroke="#3a414a" stroke-width=".05" fill="#3a414a"/><path d="M721.86-1538.2v.52M713.85-1852.3v313.32" stroke="#3a414a" fill="none"/><path d="M714.35-1852.28h-1v-.52h1zM714.2-1538.16h-.9l.56-.75.22-.26h.1z" stroke="#3a414a" stroke-width=".05" fill="#3a414a"/><path d="M1453.86-1936.54a6.5 6.5 0 0 1 8.82 0l32.13 29.67a5.54 5.54 0 0 1 0 8.14l-32.13 29.68a6.5 6.5 0 0 1-8.8 0l-32.14-29.68a5.54 5.54 0 0 1 0-8.14z" stroke="#3a414a" fill="#edf5ff"/><use xlink:href="#j" transform="matrix(1,0,0,1,1422.322834645669,-1935.6122227889582) translate(15.079074074074077 38.40277777777778)"/><path d="M1291.55-1902.8h114.78" stroke="#3a414a" fill="none"/><path d="M1291.56-1902.3h-.5v-1h.5zM1406.83-1902.8l.04.5h-.55v-1h.55z" stroke="#3a414a" stroke-width=".05" fill="#3a414a"/><use xlink:href="#k" transform="matrix(1,0,0,1,1294.6010896276973,-1898.7965999695416) translate(0 14.222222222222223)"/><path d="M1367.32-2321.95a6 6 0 0 1 6-6h169.9a6 6 0 0 1 6 6v69.9a6 6 0 0 1-6 6h-169.9a6 6 0 0 1-6-6z" stroke="#3a414a" fill="#edf5ff"/><use xlink:href="#l" transform="matrix(1,0,0,1,1379.322834645669,-2315.9527559055114) translate(46.40740740740741 21.40277777777778)"/><use xlink:href="#m" transform="matrix(1,0,0,1,1379.322834645669,-2315.9527559055114) translate(28.537037037037038 48.06944444444444)"/><path d="M1462.42-1950.03V-2236" stroke="#3a414a" fill="none"/><path d="M1462.92-1949.13l-.74-.6-.26-.14v-.17h1zM1462.92-2236h-1v-.5h1z" stroke="#3a414a" stroke-width=".05" fill="#3a414a"/><use xlink:href="#n" transform="matrix(1,0,0,1,1470.4188947452394,-2233.9462449220096) translate(0 14.222222222222223)"/><path d="M1454.62-2236v285.63" stroke="#3a414a" fill="none"/><path d="M1455.12-2236h-1v-.5h1zM1455.12-1950.16l-.77.44-.23.2v-.87h1z" stroke="#3a414a" stroke-width=".05" fill="#3a414a"/><path d="M965.58-2333.04a6.8 6.8 0 0 1 9 0l47.7 42.06a5.3 5.3 0 0 1 0 7.94l-47.7 42.06a6.8 6.8 0 0 1-9 0l-47.7-42.06a5.3 5.3 0 0 1 0-7.94z" stroke="#3a414a" fill="#edf5ff"/><use xlink:href="#o" transform="matrix(1,0,0,1,918.3858267716532,-2332.007874015748) translate(11.535864197530879 47.972222222222214)"/><path d="M1357.27-2287h-332.2" stroke="#3a414a" fill="none"/><path d="M1357.77-2286.5h-.5v-1h.5zM1025.08-2286.5h-.56l.05-.5-.05-.5h.56z" stroke="#3a414a" stroke-width=".05" fill="#3a414a"/><use xlink:href="#k" transform="matrix(1,0,0,1,1337.811038503069,-2283.007874015748) translate(0 14.222222222222223)"/><path d="M619-2287h296.1" stroke="#3a414a" fill="none"/><path d="M619-2286.5h-.5v-1h.5zM915.6-2287l.03.5h-.55v-1h.55z" stroke="#3a414a" stroke-width=".05" fill="#3a414a"/><use xlink:href="#p" transform="matrix(1,0,0,1,622.0112931555325,-2283.007874015748) translate(0 14.222222222222223)"/><path d="M513.56-2109.65a6.45 6.45 0 0 1 8.78 0l44.92 41.82a5.6 5.6 0 0 1 0 8.18l-44.92 41.82a6.45 6.45 0 0 1-8.78 0l-44.93-41.82a5.6 5.6 0 0 1 0-8.18z" stroke="#3a414a" fill="#edf5ff"/><use xlink:href="#j" transform="matrix(1,0,0,1,469.24213540954884,-2108.7414818593056) translate(27.57907407407408 48.71527777777778)"/><path d="M518-2236v123.62" stroke="#3a414a" fill="none"/><path d="M518.5-2236h-1v-.5h1zM518.5-2111.84l-.55-.04-.46.03v-.54h1z" stroke="#3a414a" stroke-width=".05" fill="#3a414a"/><use xlink:href="#p" transform="matrix(1,0,0,1,525.9921259842521,-2236.335958005249) translate(0 14.222222222222223)"/><path d="M517.95-2015.1v105.8a6 6 0 0 0 6 6H617" stroke="#3a414a" fill="none"/><path d="M517.95-2015.6l.5-.04v.55h-1v-.54zM617.5-1902.8h-.52v-1h.5z" stroke="#3a414a" stroke-width=".05" fill="#3a414a"/><use xlink:href="#k" transform="matrix(1,0,0,1,602.9796808550805,-1928.6298191639282) translate(0 14.222222222222223)"/><path d="M940.38-1772.4a6.8 6.8 0 0 1 9 0l47.7 42.05a5.3 5.3 0 0 1 0 7.94l-47.7 42.05a6.8 6.8 0 0 1-9 0l-47.7-42.06a5.3 5.3 0 0 1 0-7.95z" stroke="#3a414a" fill="#edf5ff"/><use xlink:href="#j" transform="matrix(1,0,0,1,893.1889763779525,-1771.3779527559054) translate(31.07907407407408 49.05902777777778)"/><path d="M944.88-1564v-113.64" stroke="#3a414a" fill="none"/><path d="M945.38-1563.5h-1v-.5h1zM944.88-1678.14l.5-.04v.55h-1v-.55z" stroke="#3a414a" stroke-width=".05" fill="#3a414a"/><use xlink:href="#p" transform="matrix(1,0,0,1,927.0053465539029,-1585.0249567539) translate(0 14.222222222222223)"/><path d="M1625.98-2421.6c0 15.14-25.55 27.4-57.08 27.4-31.53 0-57.1-12.26-57.1-27.4 0-15.13 25.57-27.4 57.1-27.4s57.08 12.27 57.08 27.4z" stroke="#3a414a" fill="#edf5ff"/><use xlink:href="#q" transform="matrix(1,0,0,1,1516.8110236220468,-2443.996062992126) translate(24.28895061728395 26.21527777777778)"/><path d="M1521.4-2338V-2405.28" stroke="#3a414a" fill="none"/><path d="M1521.9-2337.5h-1v-.52h1zM1521.42-2405.76l.5.3v.2h-1v-.9z" stroke="#3a414a" stroke-width=".05" fill="#3a414a"/><path d="M1380.98-2338v-53.9" stroke="#3a414a" fill="none"/><path d="M1381.48-2337.5h-1v-.52h1zM1381.48-2391.9h-1v-.37l1-.27z" stroke="#3a414a" stroke-width=".05" fill="#3a414a"/><path d="M1422.42-2421.6c0 19.4-43.7 35.1-97.64 35.1-53.92 0-97.63-15.7-97.63-35.1 0-19.38 43.7-35.1 97.63-35.1 53.93 0 97.64 15.72 97.64 35.1z" stroke="#3a414a" fill="#edf5ff"/><use xlink:href="#r" transform="matrix(1,0,0,1,1232.1455534066495,-2451.6929133858266) translate(38.159320987654326 21.59027777777778)"/><use xlink:href="#s" transform="matrix(1,0,0,1,1232.1455534066495,-2451.6929133858266) translate(123.15932098765433 21.59027777777778)"/><use xlink:href="#t" transform="matrix(1,0,0,1,1232.1455534066495,-2451.6929133858266) translate(54.9124074074074 48.25694444444444)"/><path d="M1023.9-1564v-14.65a6 6 0 0 1 6-6H1164a6 6 0 0 0 6-6v-14.65" stroke="#3a414a" fill="none"/><path d="M1024.4-1563.5h-1v-.5h1zM1170-1605.8h.5v.5h-1v-.52z" stroke="#3a414a" stroke-width=".05" fill="#3a414a"/><path d="M1225.04-1631.5c0 13.92-24.64 25.2-55.04 25.2s-55.04-11.28-55.04-25.2c0-13.9 24.64-25.2 55.04-25.2s55.04 11.3 55.04 25.2z" stroke="#3a414a" fill="#edf5ff"/><use xlink:href="#u" transform="matrix(1,0,0,1,1119.9606299212596,-1651.6929133858268) translate(20.937098765432097 25.46527777777778)"/><path d="M1024.14-1462v9.54a6 6 0 0 0 6 6H1164a6 6 0 0 1 6 6v9.54" stroke="#3a414a" fill="none"/><path d="M1024.64-1461.98h-1v-.5h1zM1170.5-1430.4l-.5-.02h-.5v-.5h1z" stroke="#3a414a" stroke-width=".05" fill="#3a414a"/><path d="M1238.86-1401.58c0 15.66-30.83 28.35-68.86 28.35s-68.86-12.7-68.86-28.35c0-15.65 30.83-28.34 68.86-28.34s68.86 12.7 68.86 28.35z" stroke="#3a414a" fill="#edf5ff"/><use xlink:href="#v" transform="matrix(1,0,0,1,1106.1417322834643,-1424.9212598425195) translate(16.004999999999995 26.59027777777778)"/><path d="M1190.55-1851.8v119.42a6 6 0 0 1-6 6H999.87" stroke="#3a414a" fill="none"/><path d="M1191.05-1851.78h-1v-.52h1zM999.88-1725.88h-.55l.04-.5-.04-.5h.55z" stroke="#3a414a" stroke-width=".05" fill="#3a414a"/><use xlink:href="#k" transform="matrix(1,0,0,1,1198.551181102362,-1836.3340541353398) translate(0 14.222222222222223)"/><path d="M1291.55-1939.5h26.4a6 6 0 0 0 6-6v-57.8" stroke="#3a414a" fill="none"/><path d="M1291.56-1939h-.5v-1h.5zM1323.93-2003.8h.5v.52h-1v-.53z" stroke="#3a414a" stroke-width=".05" fill="#3a414a"/><path d="M1394.33-2028.55c0 13.4-31.52 24.26-70.4 24.26-38.87 0-70.4-10.85-70.4-24.25s31.53-24.25 70.4-24.25c38.88 0 70.4 10.86 70.4 24.26z" stroke="#3a414a" fill="#edf5ff"/><use xlink:href="#u" transform="matrix(1,0,0,1,1258.543307086614,-2047.7965999695416) translate(35.4370987654321 25.09027777777778)"/><path d="M1271.95-1851.8v15.46a6 6 0 0 0 6 6h108.18a6 6 0 0 1 6 6v15.47" stroke="#3a414a" fill="none"/><path d="M1272.45-1851.78h-1v-.52h1zM1392.63-1808.36h-1v-.53h1z" stroke="#3a414a" stroke-width=".05" fill="#3a414a"/><path d="M1461.42-1776.38c0 17.4-31.03 31.5-69.3 31.5-38.26 0-69.28-14.1-69.28-31.5s31.02-31.5 69.3-31.5c38.25 0 69.28 14.1 69.28 31.5z" stroke="#3a414a" fill="#edf5ff"/><use xlink:href="#w" transform="matrix(1,0,0,1,1327.8346456692911,-1802.8740157480315) translate(21.255000000000006 19.3125)"/><use xlink:href="#x" transform="matrix(1,0,0,1,1327.8346456692911,-1802.8740157480315) translate(25.699444444444456 43.31249999999999)"/><use xlink:href="#y" transform="matrix(1,0,0,1,1327.8346456692911,-1802.8740157480315) translate(53.47722222222223 43.31249999999999)"/><path d="M819-1901h119.88a6 6 0 0 1 6 6v119.9" stroke="#3a414a" fill="none"/><path d="M819-1900.5h-.5v-1h.5zM945.38-1774.58l-.5-.03-.5.02v-.54h1z" stroke="#3a414a" stroke-width=".05" fill="#3a414a"/><use xlink:href="#k" transform="matrix(1,0,0,1,821.4297414212109,-1897.0012067743594) translate(0 14.222222222222223)"/><path d="M676.38-1487.4a3.02 3.02 0 0 0 2.44 4.84h78a3.02 3.02 0 0 0 2.43-4.83l-37.87-51.2a4.44 4.44 0 0 0-7.13 0z" stroke="#3a414a" fill="#edf5ff"/><use xlink:href="#i" transform="matrix(1,0,0,1,677.8154545277162,-1538.420275590551) translate(22.165493827160493 35.78777777777778)"/><path d="M669.92-1954.3v-43.68" stroke="#3a414a" fill="none"/><path d="M670.42-1953.8h-1v-.5h1zM669.92-1998.5h.5v.53h-1v-.54z" stroke="#3a414a" stroke-width=".05" fill="#3a414a"/><path d="M726.6-2019.46c0 11.3-25.37 20.47-56.68 20.47-31.3 0-56.7-9.15-56.7-20.46 0-11.3 25.4-20.47 56.7-20.47 31.3 0 56.7 9.16 56.7 20.47z" stroke="#3a414a" fill="#edf5ff"/><use xlink:href="#z" transform="matrix(1,0,0,1,618.228346456693,-2034.9311023622045) translate(22.437098765432097 19.71527777777778)"/><path d="M637.73-1852.3v118.4a6 6 0 0 1-6 6h-168.6" stroke="#3a414a" fill="none"/><path d="M638.23-1852.28h-1v-.52h1zM463.13-1727.4h-.53l.02-.5v-.2l-.02-.3h.53z" stroke="#3a414a" stroke-width=".05" fill="#3a414a"/><path d="M462.12-1727.9c0 13.9-24.47 25.2-54.64 25.2-30.2 0-54.65-11.3-54.65-25.2 0-13.92 24.47-25.2 54.65-25.2 30.17 0 54.64 11.28 54.64 25.2z" stroke="#3a414a" fill="#edf5ff"/><use xlink:href="#A" transform="matrix(1,0,0,1,357.8297291220973,-1748.1018625513163) translate(11.912407407407409 25.46527777777778)"/><path d="M617-1870.4H470.5" stroke="#3a414a" fill="none"/><path d="M617.5-1869.9h-.52v-1h.5zM470.53-1869.9H470l.02-.5v-.5h.5z" stroke="#3a414a" stroke-width=".05" fill="#3a414a"/><path d="M469.52-1870.4c0 19.8-27.78 35.86-62.04 35.86-34.27 0-62.05-16.06-62.05-35.87 0-19.83 27.78-35.9 62.05-35.9 34.26 0 62.04 16.07 62.04 35.9z" stroke="#3a414a" fill="#edf5ff"/><use xlink:href="#B" transform="matrix(1,0,0,1,350.43307086614175,-1901.2908389292693) translate(14.255000000000004 23.75)"/><use xlink:href="#C" transform="matrix(1,0,0,1,350.43307086614175,-1901.2908389292693) translate(19.310555555555567 47.74999999999999)"/><use xlink:href="#D" transform="matrix(1,0,0,1,350.43307086614175,-1901.2908389292693) translate(47.08833333333334 47.74999999999999)"/><path d="M623.77-1852.3v52.48a6 6 0 0 1-6 6H470.52" stroke="#3a414a" fill="none"/><path d="M623.97-1852.8h.3v.5h-1v-.55zM470.53-1793.32H470l.02-.5v-.5h.5z" stroke="#3a414a" stroke-width=".05" fill="#3a414a"/><path d="M469.52-1793.82c0 18.2-29.5 32.95-65.9 32.95-36.4 0-65.9-14.75-65.9-32.95 0-18.2 29.5-32.95 65.9-32.95 36.4 0 65.9 14.75 65.9 32.95z" stroke="#3a414a" fill="#edf5ff"/><use xlink:href="#E" transform="matrix(1,0,0,1,342.70670233868276,-1821.771653543307) translate(26.032777777777785 19.5)"/><use xlink:href="#F" transform="matrix(1,0,0,1,342.70670233868276,-1821.771653543307) translate(73.755 19.5)"/><use xlink:href="#G" transform="matrix(1,0,0,1,342.70670233868276,-1821.771653543307) translate(21.060555555555553 43.49999999999999)"/><path d="M282.46-1379.92h-79.88" stroke="#3a414a" fill="none"/><path d="M282.96-1379.42h-.5v-1h.5zM202.6-1379.42h-.54v-1h.53z" stroke="#3a414a" stroke-width=".05" fill="#3a414a"/><path d="M201.57-1379.92c0 32.22-33.84 58.33-75.6 58.33-41.73 0-75.58-26.1-75.58-58.32s33.84-58.34 75.58-58.34c41.75 0 75.6 26.12 75.6 58.34z" stroke="#3a414a" fill="#edf5ff"/><use xlink:href="#H" transform="matrix(1,0,0,1,55.39370078740157,-1433.2545931758527) translate(22.255000000000003 32.71875)"/><use xlink:href="#I" transform="matrix(1,0,0,1,55.39370078740157,-1433.2545931758527) translate(13.250000000000007 56.71875)"/><use xlink:href="#J" transform="matrix(1,0,0,1,55.39370078740157,-1433.2545931758527) translate(41.02777777777778 56.71875)"/><use xlink:href="#K" transform="matrix(1,0,0,1,55.39370078740157,-1433.2545931758527) translate(32.227222222222224 80.71875)"/><path d="M929.44-2084.83v28.76" stroke="#3a414a" fill="none"/><path d="M929.94-2084.8h-1v-.53h1zM929.83-2056l-.6.67-.3.4v-1.15h1z" stroke="#3a414a" stroke-width=".05" fill="#3a414a"/><path d="M282.46-1513H209.5" stroke="#3a414a" fill="none"/><path d="M282.96-1512.5h-.5v-1h.5zM209.52-1512.5H209v-1h.52z" stroke="#3a414a" stroke-width=".05" fill="#3a414a"/><path d="M208.5-1513c0 24.86-39.62 45-88.5 45s-88.5-20.14-88.5-45c0-24.85 39.62-45 88.5-45s88.5 20.15 88.5 45z" stroke="#3a414a" fill="#edf5ff"/><g><use xlink:href="#L" transform="matrix(1,0,0,1,36.496062992125985,-1552.9921259842517) translate(16.89388888888889 31)"/><use xlink:href="#M" transform="matrix(1,0,0,1,36.496062992125985,-1552.9921259842517) translate(127.89388888888888 31)"/><use xlink:href="#N" transform="matrix(1,0,0,1,36.496062992125985,-1552.9921259842517) translate(21.949444444444445 55)"/></g><path d="M683.63-1852.3v183.38a6 6 0 0 1-6 6H472.7" stroke="#3a414a" fill="none"/><path d="M684.13-1852.28h-1v-.52h1zM472.7-1662.42h-.53l.02-.5-.02-.46v-.04h.52z" stroke="#3a414a" stroke-width=".05" fill="#3a414a"/><path d="M471.7-1662.92c0 17.68-30.5 32.02-68.1 32.02-37.6 0-68.06-14.34-68.06-32.02 0-17.7 30.47-32.02 68.07-32.02 37.6 0 68.1 14.33 68.1 32.02z" stroke="#3a414a" fill="#edf5ff"/><g><use xlink:href="#O" transform="matrix(1,0,0,1,340.53643146078,-1689.9438825829477) translate(23.032777777777785 19.4375)"/><use xlink:href="#F" transform="matrix(1,0,0,1,340.53643146078,-1689.9438825829477) translate(80.755 19.4375)"/><use xlink:href="#G" transform="matrix(1,0,0,1,340.53643146078,-1689.9438825829477) translate(23.060555555555556 43.43749999999999)"/></g><defs><path fill="#3a414a" d="M67-125c0 53 21 87 73 88 37 1 54-22 65-47l45 17C233-25 199 4 140 4 58 4 20-42 15-125 8-235 124-281 211-232c18 10 29 29 36 50l-46 12c-8-25-30-41-62-41-52 0-71 34-72 86" id="P"/><path fill="#3a414a" d="M110-194c64 0 96 36 96 99 0 64-35 99-97 99-61 0-95-36-95-99 0-62 34-99 96-99zm-1 164c35 0 45-28 45-65 0-40-10-65-43-65-34 0-45 26-45 65 0 36 10 65 43 65" id="Q"/><path fill="#3a414a" d="M135-194c87-1 58 113 63 194h-50c-7-57 23-157-34-157-59 0-34 97-39 157H25l-1-190h47c2 12-1 28 3 38 12-26 28-41 61-42" id="R"/><path fill="#3a414a" d="M121-226c-27-7-43 5-38 36h38v33H83V0H34v-157H6v-33h28c-9-59 32-81 87-68v32" id="S"/><path fill="#3a414a" d="M185-48c-13 30-37 53-82 52C43 2 14-33 14-96s30-98 90-98c62 0 83 45 84 108H66c0 31 8 55 39 56 18 0 30-7 34-22zm-45-69c5-46-57-63-70-21-2 6-4 13-4 21h74" id="T"/><path fill="#3a414a" d="M135-150c-39-12-60 13-60 57V0H25l-1-190h47c2 13-1 29 3 40 6-28 27-53 61-41v41" id="U"/><path fill="#3a414a" d="M185-48c-13 30-37 53-82 52C43 2 14-33 14-96s30-98 90-98c62 0 83 45 84 108H66c0 31 8 55 39 56 18 0 30-7 34-22zm-45-69c5-46-57-63-70-21-2 6-4 13-4 21h74zm29-96v5h-28c-13-11-23-24-37-34l-37 34H39c9-26 32-39 45-61h41" id="V"/><path fill="#3a414a" d="M190-63c-7 42-38 67-86 67-59 0-84-38-90-98-12-110 154-137 174-36l-49 2c-2-19-15-32-35-32-30 0-35 28-38 64-6 74 65 87 74 30" id="W"/><path fill="#3a414a" d="M25-224v-37h50v37H25zM25 0v-190h50V0H25" id="X"/><path fill="#3a414a" d="M133-34C117-15 103 5 69 4 32 3 11-16 11-54c-1-60 55-63 116-61 1-26-3-47-28-47-18 1-26 9-28 27l-52-2c7-38 36-58 82-57s74 22 75 68l1 82c-1 14 12 18 25 15v27c-30 8-71 5-69-32zm-48 3c29 0 43-24 42-57-32 0-66-3-65 30 0 17 8 27 23 27" id="Y"/><g id="a"><use transform="matrix(0.06172839506172839,0,0,0.06172839506172839,0,0)" xlink:href="#P"/><use transform="matrix(0.06172839506172839,0,0,0.06172839506172839,15.987654320987653,0)" xlink:href="#Q"/><use transform="matrix(0.06172839506172839,0,0,0.06172839506172839,29.50617283950617,0)" xlink:href="#R"/><use transform="matrix(0.06172839506172839,0,0,0.06172839506172839,43.02469135802469,0)" xlink:href="#S"/><use transform="matrix(0.06172839506172839,0,0,0.06172839506172839,50.37037037037037,0)" xlink:href="#T"/><use transform="matrix(0.06172839506172839,0,0,0.06172839506172839,62.716049382716044,0)" xlink:href="#U"/><use transform="matrix(0.06172839506172839,0,0,0.06172839506172839,71.35802469135803,0)" xlink:href="#V"/><use transform="matrix(0.06172839506172839,0,0,0.06172839506172839,83.70370370370371,0)" xlink:href="#R"/><use transform="matrix(0.06172839506172839,0,0,0.06172839506172839,97.22222222222223,0)" xlink:href="#W"/><use transform="matrix(0.06172839506172839,0,0,0.06172839506172839,109.56790123456791,0)" xlink:href="#X"/><use transform="matrix(0.06172839506172839,0,0,0.06172839506172839,115.74074074074075,0)" xlink:href="#Y"/></g><path fill="#3a414a" d="M24 0v-248h52V0H24" id="Z"/><path fill="#3a414a" d="M137-138c1-29-70-34-71-4 15 46 118 7 119 86 1 83-164 76-172 9l43-7c4 19 20 25 44 25 33 8 57-30 24-41C81-84 22-81 20-136c-2-80 154-74 161-7" id="aa"/><path fill="#3a414a" d="M115-3C79 11 28 4 28-45v-112H4v-33h27l15-45h31v45h36v33H77v99c-1 23 16 31 38 25v30" id="ab"/><path fill="#3a414a" d="M85 4C-2 5 27-109 22-190h50c7 57-23 150 33 157 60-5 35-97 40-157h50l1 190h-47c-2-12 1-28-3-38-12 25-28 42-61 42" id="ac"/><path fill="#3a414a" d="M190-63c-7 42-38 67-86 67-59 0-84-38-90-98-12-110 154-137 174-36l-49 2c-2-19-15-32-35-32-30 0-35 28-38 64-6 74 65 87 74 30zm-84 77c20 1 33 9 33 27 0 32-36 36-71 33V53c15 1 39 4 39-11 0-13-16-12-31-12L87 0h25" id="ad"/><path fill="#3a414a" d="M132-34C116-15 102 5 68 4 31 3 10-16 10-54c-1-60 55-63 116-61 1-26-3-47-28-47-18 1-26 9-28 27l-52-2c7-38 36-58 82-57s74 22 75 68l1 82c-1 14 12 18 25 15v27c-30 8-71 5-69-32zm-48 3c29 0 43-24 42-57-32 0-66-3-65 30 0 17 8 27 23 27zm82-228c-2 27-9 52-40 51-27-1-66-46-73 0H29c0-29 9-51 39-51 28 0 66 44 74 0h24" id="ae"/><g id="b"><use transform="matrix(0.06172839506172839,0,0,0.06172839506172839,0,0)" xlink:href="#Z"/><use transform="matrix(0.06172839506172839,0,0,0.06172839506172839,6.172839506172839,0)" xlink:href="#R"/><use transform="matrix(0.06172839506172839,0,0,0.06172839506172839,19.691358024691358,0)" xlink:href="#aa"/><use transform="matrix(0.06172839506172839,0,0,0.06172839506172839,32.03703703703704,0)" xlink:href="#ab"/><use transform="matrix(0.06172839506172839,0,0,0.06172839506172839,39.382716049382715,0)" xlink:href="#X"/><use transform="matrix(0.06172839506172839,0,0,0.06172839506172839,45.55555555555556,0)" xlink:href="#ab"/><use transform="matrix(0.06172839506172839,0,0,0.06172839506172839,52.901234567901234,0)" xlink:href="#ac"/><use transform="matrix(0.06172839506172839,0,0,0.06172839506172839,66.41975308641975,0)" xlink:href="#X"/><use transform="matrix(0.06172839506172839,0,0,0.06172839506172839,72.59259259259258,0)" xlink:href="#ad"/><use transform="matrix(0.06172839506172839,0,0,0.06172839506172839,84.93827160493827,0)" xlink:href="#ae"/><use transform="matrix(0.06172839506172839,0,0,0.06172839506172839,97.28395061728395,0)" xlink:href="#Q"/></g><path fill="#3a414a" d="M24-248c93 1 206-16 204 79-1 75-69 88-152 82V0H24v-248zm52 121c47 0 100 7 100-41 0-47-54-39-100-39v80" id="af"/><path fill="#3a414a" d="M135-194c53 0 70 44 70 98 0 56-19 98-73 100-31 1-45-17-59-34 3 33 2 69 2 105H25l-1-265h48c2 10 0 23 3 31 11-24 29-35 60-35zM114-30c33 0 39-31 40-66 0-38-9-64-40-64-56 0-55 130 0 130" id="ag"/><g id="c"><use transform="matrix(0.06172839506172839,0,0,0.06172839506172839,0,0)" xlink:href="#af"/><use transform="matrix(0.06172839506172839,0,0,0.06172839506172839,14.814814814814813,0)" xlink:href="#Y"/><use transform="matrix(0.06172839506172839,0,0,0.06172839506172839,27.160493827160494,0)" xlink:href="#U"/><use transform="matrix(0.06172839506172839,0,0,0.06172839506172839,35.80246913580247,0)" xlink:href="#ab"/><use transform="matrix(0.06172839506172839,0,0,0.06172839506172839,43.148148148148145,0)" xlink:href="#X"/><use transform="matrix(0.06172839506172839,0,0,0.06172839506172839,49.32098765432099,0)" xlink:href="#W"/><use transform="matrix(0.06172839506172839,0,0,0.06172839506172839,61.666666666666664,0)" xlink:href="#X"/><use transform="matrix(0.06172839506172839,0,0,0.06172839506172839,67.8395061728395,0)" xlink:href="#ag"/><use transform="matrix(0.06172839506172839,0,0,0.06172839506172839,81.35802469135803,0)" xlink:href="#Y"/><use transform="matrix(0.06172839506172839,0,0,0.06172839506172839,93.70370370370371,0)" xlink:href="#R"/><use transform="matrix(0.06172839506172839,0,0,0.06172839506172839,107.22222222222223,0)" xlink:href="#ab"/><use transform="matrix(0.06172839506172839,0,0,0.06172839506172839,114.56790123456791,0)" xlink:href="#T"/></g><path fill="#3a414a" d="M24 0v-248h195v40H76v63h132v40H76v65h150V0H24" id="ah"/><path fill="#3a414a" d="M88-194c31-1 46 15 58 34l-1-101h50l1 261h-48c-2-10 0-23-3-31C134-8 116 4 84 4 32 4 16-41 15-95c0-56 19-97 73-99zm17 164c33 0 40-30 41-66 1-37-9-64-41-64s-38 30-39 65c0 43 13 65 39 65" id="ai"/><g id="d"><use transform="matrix(0.06172839506172839,0,0,0.06172839506172839,0,0)" xlink:href="#ah"/><use transform="matrix(0.06172839506172839,0,0,0.06172839506172839,14.814814814814813,0)" xlink:href="#aa"/><use transform="matrix(0.06172839506172839,0,0,0.06172839506172839,27.160493827160494,0)" xlink:href="#ab"/><use transform="matrix(0.06172839506172839,0,0,0.06172839506172839,34.50617283950617,0)" xlink:href="#ac"/><use transform="matrix(0.06172839506172839,0,0,0.06172839506172839,48.02469135802469,0)" xlink:href="#ai"/><use transform="matrix(0.06172839506172839,0,0,0.06172839506172839,61.54320987654321,0)" xlink:href="#Y"/><use transform="matrix(0.06172839506172839,0,0,0.06172839506172839,73.88888888888889,0)" xlink:href="#R"/><use transform="matrix(0.06172839506172839,0,0,0.06172839506172839,87.4074074074074,0)" xlink:href="#ab"/><use transform="matrix(0.06172839506172839,0,0,0.06172839506172839,94.75308641975309,0)" xlink:href="#T"/></g><path fill="#3a414a" d="M175 0L67-191c6 58 2 128 3 191H24v-248h59L193-55c-6-58-2-129-3-193h46V0h-61" id="aj"/><g id="e"><use transform="matrix(0.06172839506172839,0,0,0.06172839506172839,0,0)" xlink:href="#aj"/><use transform="matrix(0.06172839506172839,0,0,0.06172839506172839,15.987654320987653,0)" xlink:href="#ae"/><use transform="matrix(0.06172839506172839,0,0,0.06172839506172839,28.333333333333332,0)" xlink:href="#Q"/></g><g id="f"><use transform="matrix(0.06172839506172839,0,0,0.06172839506172839,0,0)" xlink:href="#T"/><use transform="matrix(0.06172839506172839,0,0,0.06172839506172839,12.345679012345679,0)" xlink:href="#aa"/><use transform="matrix(0.06172839506172839,0,0,0.06172839506172839,24.691358024691358,0)" xlink:href="#ab"/><use transform="matrix(0.06172839506172839,0,0,0.06172839506172839,32.03703703703704,0)" xlink:href="#ac"/><use transform="matrix(0.06172839506172839,0,0,0.06172839506172839,45.55555555555556,0)" xlink:href="#ai"/><use transform="matrix(0.06172839506172839,0,0,0.06172839506172839,59.074074074074076,0)" xlink:href="#Y"/><use transform="matrix(0.06172839506172839,0,0,0.06172839506172839,71.41975308641976,0)" xlink:href="#R"/><use transform="matrix(0.06172839506172839,0,0,0.06172839506172839,84.93827160493828,0)" xlink:href="#ab"/><use transform="matrix(0.06172839506172839,0,0,0.06172839506172839,92.28395061728396,0)" xlink:href="#T"/></g><g id="g"><use transform="matrix(0.06172839506172839,0,0,0.06172839506172839,0,0)" xlink:href="#af"/><use transform="matrix(0.06172839506172839,0,0,0.06172839506172839,14.814814814814813,0)" xlink:href="#T"/><use transform="matrix(0.06172839506172839,0,0,0.06172839506172839,27.160493827160494,0)" xlink:href="#aa"/><use transform="matrix(0.06172839506172839,0,0,0.06172839506172839,39.50617283950617,0)" xlink:href="#aa"/><use transform="matrix(0.06172839506172839,0,0,0.06172839506172839,51.85185185185185,0)" xlink:href="#Q"/><use transform="matrix(0.06172839506172839,0,0,0.06172839506172839,65.37037037037037,0)" xlink:href="#Y"/></g><path fill="#3a414a" d="M199 0l-22-63H83L61 0H9l90-248h61L250 0h-51zm-33-102l-36-108c-10 38-24 72-36 108h72" id="ak"/><g id="h"><use transform="matrix(0.06172839506172839,0,0,0.06172839506172839,0,0)" xlink:href="#ak"/><use transform="matrix(0.06172839506172839,0,0,0.06172839506172839,15.987654320987653,0)" xlink:href="#ac"/><use transform="matrix(0.06172839506172839,0,0,0.06172839506172839,29.50617283950617,0)" xlink:href="#ab"/><use transform="matrix(0.06172839506172839,0,0,0.06172839506172839,36.85185185185185,0)" xlink:href="#Q"/><use transform="matrix(0.06172839506172839,0,0,0.06172839506172839,50.37037037037037,0)" xlink:href="#U"/></g><path fill="#3a414a" d="M24-231v-30h32v30H24zM24 0v-190h32V0H24" id="al"/><path fill="#3a414a" d="M135-143c-3-34-86-38-87 0 15 53 115 12 119 90S17 21 10-45l28-5c4 36 97 45 98 0-10-56-113-15-118-90-4-57 82-63 122-42 12 7 21 19 24 35" id="am"/><path fill="#3a414a" d="M16-82v-28h88v28H16" id="an"/><path fill="#3a414a" d="M141-36C126-15 110 5 73 4 37 3 15-17 15-53c-1-64 63-63 125-63 3-35-9-54-41-54-24 1-41 7-42 31l-33-3c5-37 33-52 76-52 45 0 72 20 72 64v82c-1 20 7 32 28 27v20c-31 9-61-2-59-35zM48-53c0 20 12 33 32 33 41-3 63-29 60-74-43 2-92-5-92 41" id="ao"/><g id="i"><use transform="matrix(0.06172839506172839,0,0,0.06172839506172839,0,0)" xlink:href="#al"/><use transform="matrix(0.06172839506172839,0,0,0.06172839506172839,4.876543209876543,0)" xlink:href="#am"/><use transform="matrix(0.06172839506172839,0,0,0.06172839506172839,15.987654320987653,0)" xlink:href="#an"/><use transform="matrix(0.06172839506172839,0,0,0.06172839506172839,23.333333333333332,0)" xlink:href="#ao"/></g><path fill="#3a414a" d="M127-220V0H93v-220H8v-28h204v28h-85" id="ap"/><path fill="#3a414a" d="M100-194c63 0 86 42 84 106H49c0 40 14 67 53 68 26 1 43-12 49-29l28 8c-11 28-37 45-77 45C44 4 14-33 15-96c1-61 26-98 85-98zm52 81c6-60-76-77-97-28-3 7-6 17-6 28h103" id="aq"/><path fill="#3a414a" d="M210-169c-67 3-38 105-44 169h-31v-121c0-29-5-50-35-48C34-165 62-65 56 0H25l-1-190h30c1 10-1 24 2 32 10-44 99-50 107 0 11-21 27-35 58-36 85-2 47 119 55 194h-31v-121c0-29-5-49-35-48" id="ar"/><g id="j"><use transform="matrix(0.06172839506172839,0,0,0.06172839506172839,0,0)" xlink:href="#ap"/><use transform="matrix(0.06172839506172839,0,0,0.06172839506172839,11.049382716049381,0)" xlink:href="#aq"/><use transform="matrix(0.06172839506172839,0,0,0.06172839506172839,23.39506172839506,0)" xlink:href="#ar"/></g><path fill="#333" d="M190 0L58-211 59 0H30v-248h39L202-35l-2-213h31V0h-41" id="as"/><use transform="matrix(0.04938271604938272,0,0,0.04938271604938272,0,0)" xlink:href="#as" id="k"/><path fill="#3a414a" d="M195-6C206 82 75 100 31 46c-4-6-6-13-8-21l49-6c3 16 16 24 34 25 40 0 42-37 40-79-11 22-30 35-61 35-53 0-70-43-70-97 0-56 18-96 73-97 30 0 46 14 59 34l2-30h47zm-90-29c32 0 41-27 41-63 0-35-9-62-40-62-32 0-39 29-40 63 0 36 9 62 39 62" id="at"/><g id="l"><use transform="matrix(0.06172839506172839,0,0,0.06172839506172839,0,0)" xlink:href="#ak"/><use transform="matrix(0.06172839506172839,0,0,0.06172839506172839,15.987654320987653,0)" xlink:href="#U"/><use transform="matrix(0.06172839506172839,0,0,0.06172839506172839,24.629629629629626,0)" xlink:href="#ab"/><use transform="matrix(0.06172839506172839,0,0,0.06172839506172839,31.9753086419753,0)" xlink:href="#X"/><use transform="matrix(0.06172839506172839,0,0,0.06172839506172839,38.148148148148145,0)" xlink:href="#at"/><use transform="matrix(0.06172839506172839,0,0,0.06172839506172839,51.666666666666664,0)" xlink:href="#Q"/></g><path fill="#3a414a" d="M25 0v-190h50V0H25zm-5-208v-5l45-51h45v8l-60 48H20" id="au"/><g id="m"><use transform="matrix(0.06172839506172839,0,0,0.06172839506172839,0,0)" xlink:href="#P"/><use transform="matrix(0.06172839506172839,0,0,0.06172839506172839,15.987654320987653,0)" xlink:href="#X"/><use transform="matrix(0.06172839506172839,0,0,0.06172839506172839,22.160493827160494,0)" xlink:href="#T"/><use transform="matrix(0.06172839506172839,0,0,0.06172839506172839,34.50617283950617,0)" xlink:href="#R"/><use transform="matrix(0.06172839506172839,0,0,0.06172839506172839,48.02469135802469,0)" xlink:href="#ab"/><use transform="matrix(0.06172839506172839,0,0,0.06172839506172839,55.37037037037037,0)" xlink:href="#au"/><use transform="matrix(0.06172839506172839,0,0,0.06172839506172839,61.54320987654321,0)" xlink:href="#S"/><use transform="matrix(0.06172839506172839,0,0,0.06172839506172839,68.88888888888889,0)" xlink:href="#X"/><use transform="matrix(0.06172839506172839,0,0,0.06172839506172839,75.06172839506172,0)" xlink:href="#W"/><use transform="matrix(0.06172839506172839,0,0,0.06172839506172839,87.4074074074074,0)" xlink:href="#Q"/></g><path fill="#333" d="M240 0l2-218c-23 76-54 145-80 218h-23L58-218 59 0H30v-248h44l77 211c21-75 51-140 76-211h43V0h-30" id="av"/><use transform="matrix(0.04938271604938272,0,0,0.04938271604938272,0,0)" xlink:href="#av" id="n"/><path fill="#3a414a" d="M205 0l-28-72H64L36 0H1l101-248h38L239 0h-34zm-38-99l-47-123c-12 45-31 82-46 123h93" id="aw"/><path fill="#3a414a" d="M115-194c55 1 70 41 70 98S169 2 115 4C84 4 66-9 55-30l1 105H24l-1-265h31l2 30c10-21 28-34 59-34zm-8 174c40 0 45-34 45-75s-6-73-45-74c-42 0-51 32-51 76 0 43 10 73 51 73" id="ax"/><path fill="#3a414a" d="M114-163C36-179 61-72 57 0H25l-1-190h30c1 12-1 29 2 39 6-27 23-49 58-41v29" id="ay"/><path fill="#3a414a" d="M117-194c89-4 53 116 60 194h-32v-121c0-31-8-49-39-48C34-167 62-67 57 0H25l-1-190h30c1 10-1 24 2 32 11-22 29-35 61-36" id="az"/><path fill="#3a414a" d="M59-47c-2 24 18 29 38 22v24C64 9 27 4 27-40v-127H5v-23h24l9-43h21v43h35v23H59v120" id="aA"/><g id="o"><use transform="matrix(0.0493827160493827,0,0,0.0493827160493827,0,0)" xlink:href="#aw"/><use transform="matrix(0.0493827160493827,0,0,0.0493827160493827,11.851851851851848,0)" xlink:href="#ax"/><use transform="matrix(0.0493827160493827,0,0,0.0493827160493827,21.728395061728385,0)" xlink:href="#ay"/><use transform="matrix(0.0493827160493827,0,0,0.0493827160493827,27.604938271604922,0)" xlink:href="#aq"/><use transform="matrix(0.0493827160493827,0,0,0.0493827160493827,37.48148148148147,0)" xlink:href="#am"/><use transform="matrix(0.0493827160493827,0,0,0.0493827160493827,46.37037037037035,0)" xlink:href="#aq"/><use transform="matrix(0.0493827160493827,0,0,0.0493827160493827,56.2469135802469,0)" xlink:href="#az"/><use transform="matrix(0.0493827160493827,0,0,0.0493827160493827,66.12345679012343,0)" xlink:href="#aA"/><use transform="matrix(0.0493827160493827,0,0,0.0493827160493827,71.06172839506169,0)" xlink:href="#ao"/></g><path fill="#333" d="M27 0v-27h64v-190l-56 39v-29l58-41h29v221h61V0H27" id="aB"/><use transform="matrix(0.04938271604938272,0,0,0.04938271604938272,0,0)" xlink:href="#aB" id="p"/><path fill="#3a414a" d="M34 0v-190h32V0H34zM24-211c8-23 27-35 38-54h36v5l-58 49H24" id="aC"/><path fill="#3a414a" d="M84 4C-5 8 30-112 23-190h32v120c0 31 7 50 39 49 72-2 45-101 50-169h31l1 190h-30c-1-10 1-25-2-33-11 22-28 36-60 37" id="aD"/><path fill="#3a414a" d="M24 0v-261h32V0H24" id="aE"/><path fill="#3a414a" d="M100-194c62-1 85 37 85 99 1 63-27 99-86 99S16-35 15-95c0-66 28-99 85-99zM99-20c44 1 53-31 53-75 0-43-8-75-51-75s-53 32-53 75 10 74 51 75" id="aF"/><g id="q"><use transform="matrix(0.06172839506172839,0,0,0.06172839506172839,0,0)" xlink:href="#ap"/><use transform="matrix(0.06172839506172839,0,0,0.06172839506172839,13.518518518518517,0)" xlink:href="#aC"/><use transform="matrix(0.06172839506172839,0,0,0.06172839506172839,19.691358024691358,0)" xlink:href="#aA"/><use transform="matrix(0.06172839506172839,0,0,0.06172839506172839,25.864197530864196,0)" xlink:href="#aD"/><use transform="matrix(0.06172839506172839,0,0,0.06172839506172839,38.20987654320987,0)" xlink:href="#aE"/><use transform="matrix(0.06172839506172839,0,0,0.06172839506172839,43.08641975308642,0)" xlink:href="#aF"/><path fill="#3a414a" d="M-1.1 1.54h57.64v1.63H-1.1z"/></g><path fill="#3a414a" d="M190 0L58-211 59 0H30v-248h39L202-35l-2-213h31V0h-41" id="aG"/><path fill="#3a414a" d="M85 4C-4 8 31-112 24-190h32v120c0 31 7 50 39 49 72-2 45-101 50-169h31l1 190h-30c-1-10 1-25-2-33-11 22-28 36-60 37zM73-211c8-23 27-35 38-54h36v5l-58 49H73" id="aH"/><g id="r"><use transform="matrix(0.06172839506172839,0,0,0.06172839506172839,0,0)" xlink:href="#aG"/><use transform="matrix(0.06172839506172839,0,0,0.06172839506172839,15.987654320987653,0)" xlink:href="#aH"/><use transform="matrix(0.06172839506172839,0,0,0.06172839506172839,28.333333333333332,0)" xlink:href="#ar"/><use transform="matrix(0.06172839506172839,0,0,0.06172839506172839,46.79012345679012,0)" xlink:href="#aq"/><use transform="matrix(0.06172839506172839,0,0,0.06172839506172839,59.1358024691358,0)" xlink:href="#ay"/><use transform="matrix(0.06172839506172839,0,0,0.06172839506172839,66.48148148148148,0)" xlink:href="#aF"/><path fill="#3a414a" d="M-1.1 1.54h87.2v1.63H-1.1z"/></g><path fill="#3a414a" d="M85-194c31 0 48 13 60 33l-1-100h32l1 261h-30c-2-10 0-23-3-31C134-8 116 4 85 4 32 4 16-35 15-94c0-66 23-100 70-100zm9 24c-40 0-46 34-46 75 0 40 6 74 45 74 42 0 51-32 51-76 0-42-9-74-50-73" id="aI"/><g id="s"><use transform="matrix(0.06172839506172839,0,0,0.06172839506172839,0,0)" xlink:href="#aI"/><use transform="matrix(0.06172839506172839,0,0,0.06172839506172839,12.345679012345679,0)" xlink:href="#aq"/><path fill="#3a414a" d="M-1.1 1.54h26.9v1.63H-1.1z"/></g><path fill="#3a414a" d="M233-177c-1 41-23 64-60 70L243 0h-38l-65-103H63V0H30v-248c88 3 205-21 203 71zM63-129c60-2 137 13 137-47 0-61-80-42-137-45v92" id="aJ"/><path fill="#3a414a" d="M177-190C167-65 218 103 67 71c-23-6-38-20-44-43l32-5c15 47 100 32 89-28v-30C133-14 115 1 83 1 29 1 15-40 15-95c0-56 16-97 71-98 29-1 48 16 59 35 1-10 0-23 2-32h30zM94-22c36 0 50-32 50-73 0-42-14-75-50-75-39 0-46 34-46 75s6 73 46 73" id="aK"/><g id="t"><use transform="matrix(0.06172839506172839,0,0,0.06172839506172839,0,0)" xlink:href="#aJ"/><use transform="matrix(0.06172839506172839,0,0,0.06172839506172839,15.987654320987653,0)" xlink:href="#aq"/><use transform="matrix(0.06172839506172839,0,0,0.06172839506172839,28.333333333333332,0)" xlink:href="#aK"/><use transform="matrix(0.06172839506172839,0,0,0.06172839506172839,40.67901234567901,0)" xlink:href="#al"/><use transform="matrix(0.06172839506172839,0,0,0.06172839506172839,45.55555555555556,0)" xlink:href="#am"/><use transform="matrix(0.06172839506172839,0,0,0.06172839506172839,56.66666666666667,0)" xlink:href="#aA"/><use transform="matrix(0.06172839506172839,0,0,0.06172839506172839,62.83950617283951,0)" xlink:href="#aF"/><path fill="#3a414a" d="M-1.1 1.54h77.4v1.63H-1.1z"/></g><g id="u"><use transform="matrix(0.06172839506172839,0,0,0.06172839506172839,0,0)" xlink:href="#aG"/><use transform="matrix(0.06172839506172839,0,0,0.06172839506172839,15.987654320987653,0)" xlink:href="#aF"/><use transform="matrix(0.06172839506172839,0,0,0.06172839506172839,28.333333333333332,0)" xlink:href="#ar"/><use transform="matrix(0.06172839506172839,0,0,0.06172839506172839,46.79012345679012,0)" xlink:href="#aq"/><path fill="#3a414a" d="M-1.1 1.54h61.35v1.63H-1.1z"/></g><path fill="#3a414a" d="M30 0v-248h187v28H63v79h144v27H63v87h162V0H30" id="aL"/><path fill="#3a414a" d="M96-169c-40 0-48 33-48 73s9 75 48 75c24 0 41-14 43-38l32 2c-6 37-31 61-74 61-59 0-76-41-82-99-10-93 101-131 147-64 4 7 5 14 7 22l-32 3c-4-21-16-35-41-35zm3 187c19-1 33 8 33 26 0 31-30 33-64 32V58c18 2 39 4 41-13 1-15-18-13-34-13L87 0h19" id="aM"/><g id="v"><use transform="matrix(0.06172839506172839,0,0,0.06172839506172839,0,0)" xlink:href="#aL"/><use transform="matrix(0.06172839506172839,0,0,0.06172839506172839,14.814814814814813,0)" xlink:href="#az"/><use transform="matrix(0.06172839506172839,0,0,0.06172839506172839,27.160493827160494,0)" xlink:href="#aI"/><use transform="matrix(0.06172839506172839,0,0,0.06172839506172839,39.50617283950617,0)" xlink:href="#aq"/><use transform="matrix(0.06172839506172839,0,0,0.06172839506172839,51.85185185185185,0)" xlink:href="#ay"/><use transform="matrix(0.06172839506172839,0,0,0.06172839506172839,59.197530864197525,0)" xlink:href="#aq"/><use transform="matrix(0.06172839506172839,0,0,0.06172839506172839,71.5432098765432,0)" xlink:href="#aM"/><use transform="matrix(0.06172839506172839,0,0,0.06172839506172839,82.65432098765432,0)" xlink:href="#aF"/></g><g id="w"><use transform="matrix(0.055555555555555546,0,0,0.055555555555555546,0,0)" xlink:href="#aL"/><use transform="matrix(0.055555555555555546,0,0,0.055555555555555546,13.33333333333333,0)" xlink:href="#az"/><use transform="matrix(0.055555555555555546,0,0,0.055555555555555546,24.44444444444444,0)" xlink:href="#aI"/><use transform="matrix(0.055555555555555546,0,0,0.055555555555555546,35.55555555555555,0)" xlink:href="#aq"/><use transform="matrix(0.055555555555555546,0,0,0.055555555555555546,46.66666666666666,0)" xlink:href="#ay"/><use transform="matrix(0.055555555555555546,0,0,0.055555555555555546,53.277777777777764,0)" xlink:href="#aq"/><use transform="matrix(0.055555555555555546,0,0,0.055555555555555546,64.38888888888887,0)" xlink:href="#aM"/><use transform="matrix(0.055555555555555546,0,0,0.055555555555555546,74.38888888888887,0)" xlink:href="#aF"/></g><g id="x"><use transform="matrix(0.055555555555555546,0,0,0.055555555555555546,0,0)" xlink:href="#aI"/><use transform="matrix(0.055555555555555546,0,0,0.055555555555555546,11.111111111111109,0)" xlink:href="#aq"/></g><g id="y"><use transform="matrix(0.055555555555555546,0,0,0.055555555555555546,0,0)" xlink:href="#aL"/><use transform="matrix(0.055555555555555546,0,0,0.055555555555555546,13.33333333333333,0)" xlink:href="#ar"/><use transform="matrix(0.055555555555555546,0,0,0.055555555555555546,29.944444444444432,0)" xlink:href="#ao"/><use transform="matrix(0.055555555555555546,0,0,0.055555555555555546,41.05555555555554,0)" xlink:href="#al"/><use transform="matrix(0.055555555555555546,0,0,0.055555555555555546,45.44444444444443,0)" xlink:href="#aE"/></g><g id="z"><use transform="matrix(0.06172839506172839,0,0,0.06172839506172839,0,0)" xlink:href="#aG"/><use transform="matrix(0.06172839506172839,0,0,0.06172839506172839,15.987654320987653,0)" xlink:href="#aF"/><use transform="matrix(0.06172839506172839,0,0,0.06172839506172839,28.333333333333332,0)" xlink:href="#ar"/><use transform="matrix(0.06172839506172839,0,0,0.06172839506172839,46.79012345679012,0)" xlink:href="#aq"/><path fill="#3a414a" d="M-1.1 1.54h61.35v1.63H-1.1z"/></g><path fill="#3a414a" d="M240 0l2-218c-23 76-54 145-80 218h-23L58-218 59 0H30v-248h44l77 211c21-75 51-140 76-211h43V0h-30" id="aN"/><g id="A"><use transform="matrix(0.06172839506172839,0,0,0.06172839506172839,0,0)" xlink:href="#aN"/><use transform="matrix(0.06172839506172839,0,0,0.06172839506172839,18.456790123456788,0)" xlink:href="#aF"/><use transform="matrix(0.06172839506172839,0,0,0.06172839506172839,30.80246913580247,0)" xlink:href="#ay"/><use transform="matrix(0.06172839506172839,0,0,0.06172839506172839,38.148148148148145,0)" xlink:href="#ao"/><use transform="matrix(0.06172839506172839,0,0,0.06172839506172839,50.49382716049382,0)" xlink:href="#aI"/><use transform="matrix(0.06172839506172839,0,0,0.06172839506172839,62.8395061728395,0)" xlink:href="#ao"/></g><g id="B"><use transform="matrix(0.055555555555555546,0,0,0.055555555555555546,0,0)" xlink:href="#aL"/><use transform="matrix(0.055555555555555546,0,0,0.055555555555555546,13.33333333333333,0)" xlink:href="#az"/><use transform="matrix(0.055555555555555546,0,0,0.055555555555555546,24.44444444444444,0)" xlink:href="#aI"/><use transform="matrix(0.055555555555555546,0,0,0.055555555555555546,35.55555555555555,0)" xlink:href="#aq"/><use transform="matrix(0.055555555555555546,0,0,0.055555555555555546,46.66666666666666,0)" xlink:href="#ay"/><use transform="matrix(0.055555555555555546,0,0,0.055555555555555546,53.277777777777764,0)" xlink:href="#aq"/><use transform="matrix(0.055555555555555546,0,0,0.055555555555555546,64.38888888888887,0)" xlink:href="#aM"/><use transform="matrix(0.055555555555555546,0,0,0.055555555555555546,74.38888888888887,0)" xlink:href="#aF"/></g><g id="C"><use transform="matrix(0.055555555555555546,0,0,0.055555555555555546,0,0)" xlink:href="#aI"/><use transform="matrix(0.055555555555555546,0,0,0.055555555555555546,11.111111111111109,0)" xlink:href="#aq"/></g><g id="D"><use transform="matrix(0.055555555555555546,0,0,0.055555555555555546,0,0)" xlink:href="#aq"/><use transform="matrix(0.055555555555555546,0,0,0.055555555555555546,11.111111111111109,0)" xlink:href="#ar"/><use transform="matrix(0.055555555555555546,0,0,0.055555555555555546,27.722222222222214,0)" xlink:href="#ao"/><use transform="matrix(0.055555555555555546,0,0,0.055555555555555546,38.83333333333332,0)" xlink:href="#al"/><use transform="matrix(0.055555555555555546,0,0,0.055555555555555546,43.22222222222221,0)" xlink:href="#aE"/></g><path fill="#3a414a" d="M30-248c118-7 216 8 213 122C240-48 200 0 122 0H30v-248zM63-27c89 8 146-16 146-99s-60-101-146-95v194" id="aO"/><g id="E"><use transform="matrix(0.055555555555555546,0,0,0.055555555555555546,0,0)" xlink:href="#aO"/><use transform="matrix(0.055555555555555546,0,0,0.055555555555555546,14.388888888888886,0)" xlink:href="#ao"/><use transform="matrix(0.055555555555555546,0,0,0.055555555555555546,25.499999999999993,0)" xlink:href="#aA"/><use transform="matrix(0.055555555555555546,0,0,0.055555555555555546,31.055555555555543,0)" xlink:href="#ao"/></g><g id="F"><use transform="matrix(0.055555555555555546,0,0,0.055555555555555546,0,0)" xlink:href="#aI"/><use transform="matrix(0.055555555555555546,0,0,0.055555555555555546,11.111111111111109,0)" xlink:href="#aq"/></g><path fill="#3a414a" d="M33 0v-248h34V0H33" id="aP"/><path fill="#3a414a" d="M96-169c-40 0-48 33-48 73s9 75 48 75c24 0 41-14 43-38l32 2c-6 37-31 61-74 61-59 0-76-41-82-99-10-93 101-131 147-64 4 7 5 14 7 22l-32 3c-4-21-16-35-41-35" id="aQ"/><path fill="#3a414a" d="M141-36C126-15 110 5 73 4 37 3 15-17 15-53c-1-64 63-63 125-63 3-35-9-54-41-54-24 1-41 7-42 31l-33-3c5-37 33-52 76-52 45 0 72 20 72 64v82c-1 20 7 32 28 27v20c-31 9-61-2-59-35zM48-53c0 20 12 33 32 33 41-3 63-29 60-74-43 2-92-5-92 41zm117-205c-3 23-9 48-36 47-26-1-65-44-74 0H39c4-23 8-48 36-47s64 44 74 0h16" id="aR"/><g id="G"><use transform="matrix(0.055555555555555546,0,0,0.055555555555555546,0,0)" xlink:href="#aP"/><use transform="matrix(0.055555555555555546,0,0,0.055555555555555546,5.5555555555555545,0)" xlink:href="#az"/><use transform="matrix(0.055555555555555546,0,0,0.055555555555555546,16.666666666666664,0)" xlink:href="#am"/><use transform="matrix(0.055555555555555546,0,0,0.055555555555555546,26.666666666666664,0)" xlink:href="#aQ"/><use transform="matrix(0.055555555555555546,0,0,0.055555555555555546,36.666666666666664,0)" xlink:href="#ay"/><use transform="matrix(0.055555555555555546,0,0,0.055555555555555546,43.27777777777777,0)" xlink:href="#al"/><use transform="matrix(0.055555555555555546,0,0,0.055555555555555546,47.66666666666666,0)" xlink:href="#aM"/><use transform="matrix(0.055555555555555546,0,0,0.055555555555555546,57.66666666666666,0)" xlink:href="#aR"/><use transform="matrix(0.055555555555555546,0,0,0.055555555555555546,68.77777777777777,0)" xlink:href="#aF"/></g><path fill="#3a414a" d="M101-234c-31-9-42 10-38 44h38v23H63V0H32v-167H5v-23h27c-7-52 17-82 69-68v24" id="aS"/><path fill="#3a414a" d="M100-194c63 0 86 42 84 106H49c0 40 14 67 53 68 26 1 43-12 49-29l28 8c-11 28-37 45-77 45C44 4 14-33 15-96c1-61 26-98 85-98zm52 81c6-60-76-77-97-28-3 7-6 17-6 28h103zm-32-149c12 18 30 30 39 51-31 2-38-20-57-30-20 10-27 32-59 30 9-22 29-33 41-51h36" id="aT"/><g id="H"><use transform="matrix(0.055555555555555546,0,0,0.055555555555555546,0,0)" xlink:href="#aJ"/><use transform="matrix(0.055555555555555546,0,0,0.055555555555555546,14.388888888888886,0)" xlink:href="#aq"/><use transform="matrix(0.055555555555555546,0,0,0.055555555555555546,25.499999999999993,0)" xlink:href="#aS"/><use transform="matrix(0.055555555555555546,0,0,0.055555555555555546,31.055555555555543,0)" xlink:href="#aq"/><use transform="matrix(0.055555555555555546,0,0,0.055555555555555546,42.16666666666666,0)" xlink:href="#ay"/><use transform="matrix(0.055555555555555546,0,0,0.055555555555555546,48.777777777777764,0)" xlink:href="#aT"/><use transform="matrix(0.055555555555555546,0,0,0.055555555555555546,59.888888888888864,0)" xlink:href="#az"/><use transform="matrix(0.055555555555555546,0,0,0.055555555555555546,70.99999999999999,0)" xlink:href="#aQ"/><use transform="matrix(0.055555555555555546,0,0,0.055555555555555546,80.99999999999999,0)" xlink:href="#al"/><use transform="matrix(0.055555555555555546,0,0,0.055555555555555546,85.38888888888887,0)" xlink:href="#ao"/></g><g id="I"><use transform="matrix(0.055555555555555546,0,0,0.055555555555555546,0,0)" xlink:href="#aI"/><use transform="matrix(0.055555555555555546,0,0,0.055555555555555546,11.111111111111109,0)" xlink:href="#ao"/></g><g id="J"><use transform="matrix(0.055555555555555546,0,0,0.055555555555555546,0,0)" xlink:href="#aA"/><use transform="matrix(0.055555555555555546,0,0,0.055555555555555546,5.5555555555555545,0)" xlink:href="#ay"/><use transform="matrix(0.055555555555555546,0,0,0.055555555555555546,12.166666666666664,0)" xlink:href="#ao"/><use transform="matrix(0.055555555555555546,0,0,0.055555555555555546,23.27777777777777,0)" xlink:href="#az"/><use transform="matrix(0.055555555555555546,0,0,0.055555555555555546,34.38888888888888,0)" xlink:href="#am"/><use transform="matrix(0.055555555555555546,0,0,0.055555555555555546,44.38888888888888,0)" xlink:href="#ao"/><use transform="matrix(0.055555555555555546,0,0,0.055555555555555546,55.499999999999986,0)" xlink:href="#aM"/><use transform="matrix(0.055555555555555546,0,0,0.055555555555555546,65.49999999999999,0)" xlink:href="#aR"/><use transform="matrix(0.055555555555555546,0,0,0.055555555555555546,76.6111111111111,0)" xlink:href="#aF"/></g><path fill="#3a414a" d="M115-194c53 0 69 39 70 98 0 66-23 100-70 100C84 3 66-7 56-30L54 0H23l1-261h32v101c10-23 28-34 59-34zm-8 174c40 0 45-34 45-75 0-40-5-75-45-74-42 0-51 32-51 76 0 43 10 73 51 73" id="aU"/><path fill="#3a414a" d="M141-36C126-15 110 5 73 4 37 3 15-17 15-53c-1-64 63-63 125-63 3-35-9-54-41-54-24 1-41 7-42 31l-33-3c5-37 33-52 76-52 45 0 72 20 72 64v82c-1 20 7 32 28 27v20c-31 9-61-2-59-35zM48-53c0 20 12 33 32 33 41-3 63-29 60-74-43 2-92-5-92 41zm25-158c8-23 27-35 38-54h36v5l-58 49H73" id="aV"/><g id="K"><use transform="matrix(0.055555555555555546,0,0,0.055555555555555546,0,0)" xlink:href="#aU"/><use transform="matrix(0.055555555555555546,0,0,0.055555555555555546,11.111111111111109,0)" xlink:href="#ao"/><use transform="matrix(0.055555555555555546,0,0,0.055555555555555546,22.222222222222218,0)" xlink:href="#az"/><use transform="matrix(0.055555555555555546,0,0,0.055555555555555546,33.33333333333333,0)" xlink:href="#aQ"/><use transform="matrix(0.055555555555555546,0,0,0.055555555555555546,43.33333333333333,0)" xlink:href="#aV"/><use transform="matrix(0.055555555555555546,0,0,0.055555555555555546,54.444444444444436,0)" xlink:href="#ay"/><use transform="matrix(0.055555555555555546,0,0,0.055555555555555546,61.05555555555554,0)" xlink:href="#al"/><use transform="matrix(0.055555555555555546,0,0,0.055555555555555546,65.44444444444443,0)" xlink:href="#ao"/></g><path fill="#3a414a" d="M30 0v-248h33v221h125V0H30" id="aW"/><path fill="#3a414a" d="M9 0v-24l116-142H16v-24h144v24L44-24h123V0H9" id="aX"/><g id="L"><use transform="matrix(0.055555555555555546,0,0,0.055555555555555546,0,0)" xlink:href="#aW"/><use transform="matrix(0.055555555555555546,0,0,0.055555555555555546,11.111111111111109,0)" xlink:href="#aF"/><use transform="matrix(0.055555555555555546,0,0,0.055555555555555546,22.222222222222218,0)" xlink:href="#aQ"/><use transform="matrix(0.055555555555555546,0,0,0.055555555555555546,32.222222222222214,0)" xlink:href="#ao"/><use transform="matrix(0.055555555555555546,0,0,0.055555555555555546,43.33333333333332,0)" xlink:href="#aE"/><use transform="matrix(0.055555555555555546,0,0,0.055555555555555546,47.72222222222221,0)" xlink:href="#al"/><use transform="matrix(0.055555555555555546,0,0,0.055555555555555546,52.11111111111109,0)" xlink:href="#aX"/><use transform="matrix(0.055555555555555546,0,0,0.055555555555555546,62.111111111111086,0)" xlink:href="#ao"/><use transform="matrix(0.055555555555555546,0,0,0.055555555555555546,73.2222222222222,0)" xlink:href="#aM"/><use transform="matrix(0.055555555555555546,0,0,0.055555555555555546,83.2222222222222,0)" xlink:href="#aR"/><use transform="matrix(0.055555555555555546,0,0,0.055555555555555546,94.33333333333331,0)" xlink:href="#aF"/></g><g id="M"><use transform="matrix(0.055555555555555546,0,0,0.055555555555555546,0,0)" xlink:href="#aI"/><use transform="matrix(0.055555555555555546,0,0,0.055555555555555546,11.111111111111109,0)" xlink:href="#aF"/></g><path fill="#3a414a" d="M212-179c-10-28-35-45-73-45-59 0-87 40-87 99 0 60 29 101 89 101 43 0 62-24 78-52l27 14C228-24 195 4 139 4 59 4 22-46 18-125c-6-104 99-153 187-111 19 9 31 26 39 46" id="aY"/><path fill="#3a414a" d="M108 0H70L1-190h34L89-25l56-165h34" id="aZ"/><g id="N"><use transform="matrix(0.055555555555555546,0,0,0.055555555555555546,0,0)" xlink:href="#aY"/><use transform="matrix(0.055555555555555546,0,0,0.055555555555555546,14.388888888888886,0)" xlink:href="#aF"/><use transform="matrix(0.055555555555555546,0,0,0.055555555555555546,25.499999999999993,0)" xlink:href="#ar"/><use transform="matrix(0.055555555555555546,0,0,0.055555555555555546,42.1111111111111,0)" xlink:href="#ax"/><use transform="matrix(0.055555555555555546,0,0,0.055555555555555546,53.22222222222221,0)" xlink:href="#ay"/><use transform="matrix(0.055555555555555546,0,0,0.055555555555555546,59.83333333333331,0)" xlink:href="#aF"/><use transform="matrix(0.055555555555555546,0,0,0.055555555555555546,70.94444444444443,0)" xlink:href="#aZ"/><use transform="matrix(0.055555555555555546,0,0,0.055555555555555546,80.94444444444443,0)" xlink:href="#ao"/><use transform="matrix(0.055555555555555546,0,0,0.055555555555555546,92.05555555555554,0)" xlink:href="#aA"/><use transform="matrix(0.055555555555555546,0,0,0.055555555555555546,97.6111111111111,0)" xlink:href="#al"/><use transform="matrix(0.055555555555555546,0,0,0.055555555555555546,101.99999999999999,0)" xlink:href="#aZ"/><use transform="matrix(0.055555555555555546,0,0,0.055555555555555546,111.99999999999999,0)" xlink:href="#aF"/></g><g id="O"><use transform="matrix(0.055555555555555546,0,0,0.055555555555555546,0,0)" xlink:href="#aY"/><use transform="matrix(0.055555555555555546,0,0,0.055555555555555546,14.388888888888886,0)" xlink:href="#aD"/><use transform="matrix(0.055555555555555546,0,0,0.055555555555555546,25.499999999999993,0)" xlink:href="#am"/><use transform="matrix(0.055555555555555546,0,0,0.055555555555555546,35.49999999999999,0)" xlink:href="#aA"/><use transform="matrix(0.055555555555555546,0,0,0.055555555555555546,41.05555555555555,0)" xlink:href="#aF"/></g></defs></g></svg>